<?xml version="1.0" encoding="utf-8"?>
<!-- Generator: Adobe Illustrator 24.2.3, SVG Export Plug-In . SVG Version: 6.00 Build 0)  -->
<svg version="1.1" id="Capa_1" xmlns="http://www.w3.org/2000/svg" xmlns:xlink="http://www.w3.org/1999/xlink" x="0px" y="0px"
	 viewBox="0 0 265 176.2" style="enable-background:new 0 0 265 176.2;" xml:space="preserve">
<style type="text/css">
	.st0{fill:#E8395B;}
	.st1{opacity:0.34;fill:#CB3B5E;}
	.st2{opacity:8.000000e-02;fill:#FFFFFF;}
	.st3{fill:#C4234B;}
	.st4{fill:#EB567D;}
	.st5{fill:#E83E5E;}
	.st6{fill:#E94960;}
	.st7{fill:url(#SVGID_1_);}
	.st8{fill:url(#SVGID_2_);}
	.st9{fill:#FFFFFF;}
	.st10{fill:#E5EFEB;}
	.st11{fill:#FBBB10;}
	.st12{fill:#F3911B;}
	.st13{opacity:7.000000e-02;}
	.st14{opacity:9.000000e-02;}
	.st15{fill:#E94867;}
	.st16{opacity:0.29;}
	.st17{fill:#EC6170;}
	.st18{opacity:0.14;fill:#FFFFFF;}
	.st19{opacity:0.14;}
	.st20{opacity:8.000000e-02;}
	.st21{fill:#CE2D4B;}
	.st22{fill:#632F88;}
	.st23{fill:#EF8086;}
	.st24{fill:#F6B8BB;}
	.st25{fill:#F18CA5;}
	.st26{opacity:0.4;fill:#F18CA5;}
	.st27{fill:#C22C4B;}
	.st28{opacity:0.26;}
</style>
<g>
	<path class="st0" d="M169.9,144.2c0-4.8-17.8-8.6-39.7-8.6s-39.7,3.9-39.7,8.6c0,0.3,0.1,0.6,0.2,0.9c-10.1,0.4-17.7,2.3-17.7,4.6
		c0,2.6,9.7,4.7,21.6,4.7c2.2,0,4.4-0.1,6.4-0.2c-0.2,0.3-0.4,0.6-0.4,0.9c0,2.7,10.1,4.9,22.6,4.9c12.5,0,22.6-2.2,22.6-4.9
		c0-1-1.3-1.9-3.5-2.6C158.2,151.4,169.9,148.1,169.9,144.2z"/>
	<ellipse class="st1" cx="134.5" cy="141.4" rx="23.2" ry="5"/>
	<ellipse class="st0" cx="90.3" cy="166.2" rx="19.7" ry="4.3"/>
	<path class="st1" d="M83.6,163.5c0,0.6,2.2,1.1,5,1.1c2.8,0,5-0.5,5-1.1c0-0.6-2.2-1.1-5-1.1C85.8,162.4,83.6,162.9,83.6,163.5z"/>
	<path class="st1" d="M98.4,166c0,0.3,1.2,0.6,2.6,0.6c1.4,0,2.6-0.3,2.6-0.6s-1.2-0.6-2.6-0.6C99.6,165.4,98.4,165.7,98.4,166z"/>
	<ellipse class="st1" cx="98.4" cy="165.2" rx="1.1" ry="0.2"/>
	<path class="st1" d="M100.3,164.9c0,0.1,0.4,0.2,0.8,0.2s0.8-0.1,0.8-0.2c0-0.1-0.4-0.2-0.8-0.2S100.3,164.8,100.3,164.9z"/>
	<path class="st2" d="M108,164.8c-0.3,2-8.2,3.5-17.9,3.5c-9.3,0-17-1.4-17.9-3.3c-0.4,0.3-0.6,0.6-0.6,1c0,2.1,8.4,3.8,18.7,3.8
		c10.3,0,18.7-1.7,18.7-3.8C109,165.6,108.6,165.2,108,164.8z"/>
	<ellipse class="st1" cx="115.6" cy="149.1" rx="8.6" ry="1.9"/>
	<path class="st1" d="M100.5,144.6c0,0.5,1.9,0.9,4.2,0.9c2.3,0,4.2-0.4,4.2-0.9c0-0.5-1.9-0.9-4.2-0.9
		C102.4,143.7,100.5,144.1,100.5,144.6z"/>
	<g>
		<path class="st3" d="M83.2,148.7L83.2,148.7L83.2,148.7c1.9,0,3.7-0.2,5.1-0.2c0.5,0,0.9-0.1,1.4-0.1l0.2-2.5l-0.5-6.6l-3.1,1
			l-1.1,1.2l-0.6,1l-2.3,1.7l-3.6,4C80,148.6,81.6,148.7,83.2,148.7z"/>
		<path class="st4" d="M83.8,148.7l2.2-2l-1.6,2c1.4-0.1,2.8-0.2,3.9-0.2c0.3,0,0.6,0,0.8-0.1l0.5-1l-0.2-8.1l-9.3,9.2
			C81.3,148.7,82.6,148.7,83.8,148.7z"/>
		<path class="st5" d="M83.8,148.7l2.2-2l-0.8,1l0,0.7l-0.6,0.3c1.4-0.1,2.7-0.2,3.7-0.2c2.6-0.1,5.1-0.4,7.5-1
			c-0.1-0.4-0.2-0.9-0.3-1.3c-0.6,0.2-1.5,0.7-1.5,0.7l1.3-1.2c-0.1-0.3-0.2-0.6-0.4-0.8l-0.4-0.1l0.2-0.5c-0.4-0.8-0.9-1.4-1.4-2
			l-0.4-0.1l-0.3-0.6c-0.3-0.3-0.5-0.5-0.8-0.7l-0.4,0l0.1-0.3c-1.1-0.9-2-1.3-2-1.3l-8.8,9.3C81.7,148.7,82.8,148.7,83.8,148.7z"/>
		<path class="st4" d="M86.3,148.6C86.3,148.6,86.3,148.6,86.3,148.6l0.5-0.5l-0.5-0.1l0.1-0.8l1.7-0.4l1.4-2.4l0.9-0.4l-1.1,0.1
			l-1.4,2.3l-0.3,0.4l-1.4,0.3l-0.2,0.8l0.6,0.4L86.3,148.6z"/>
		<path class="st3" d="M86.3,148l0-1l1.8-0.4l1.4-2.4l1-0.3l-1.2,0.1l-1.4,2.4l-1.8,0.2c0,0,0,0.9,0,1C86,147.8,86.1,147.9,86.3,148
			z"/>
	</g>
	<path class="st0" d="M78,148.3c0,0,1.1-0.8,3.4-0.2c2.3,0.6,4,0.5,6.4-0.2c2.4-0.7,4.2,0.5,4.2,0.5l-1.9,1l-2.5,0.8
		c0,0-2.4,0.4-4.3,0.3c-2-0.1-1.8-0.1-1.8-0.1l-1.8-0.5l-1-0.3L78,148.3z"/>
	<g>
		<path class="st3" d="M95.9,150.5c0.3,0,0.6,0,0.9,0c0.9-0.1,2-0.1,3.1-0.2l0,0l0,0c0.1,0,0.2,0,0.3,0c0.4-0.5,0.8-1,1.2-1.5
			c0,0,0.1-0.1,0.1-0.1l-1.3-1.2l-1.5-0.9l-0.4-0.6l-0.8-0.6l-2-0.4l0.1,4.1L95.9,150.5z"/>
		<path class="st4" d="M96.3,150.5c0.2,0,0.3,0,0.5,0c0.7,0,1.5-0.1,2.4-0.1l-1.1-1.1l1.5,1.1c0.2,0,0.4,0,0.6-0.1
			c0.3-0.3,0.5-0.6,0.8-0.9l-5.5-4.4l0.4,5L96.3,150.5z"/>
		<path class="st6" d="M95.5,144.9c0,0-0.5,0.3-1.2,1l0.1,0.2l-0.3,0c-0.1,0.1-0.3,0.3-0.4,0.5l-0.1,0.4l-0.3,0.1
			c-0.3,0.4-0.5,0.8-0.7,1.3l0.1,0.3l-0.3,0.1c0,0.1-0.1,0.3-0.1,0.4c0.6,0.2,1.1,0.6,1.5,1c0.2,0.2,0.3,0.3,0.5,0.5
			c0.8,0,1.5,0,2.3-0.1c0.6,0,1.4-0.1,2.3-0.1l-0.4-0.1l-0.1-0.4l-0.5-0.6l1.5,1.1c0.2,0,0.4,0,0.6-0.1c0.2-0.2,0.4-0.5,0.6-0.8
			L95.5,144.9z"/>
		<path class="st4" d="M98,150.4C98,150.4,98,150.4,98,150.4l-0.3-0.3L98,150l-0.1-0.5l-1.1-0.1l-1-1.4l-0.6-0.2l0.7,0l1,1.3
			l0.2,0.2l0.9,0.1l0.2,0.5l-0.3,0.3L98,150.4z"/>
		<path class="st3" d="M98,150l0-0.6l-1.1-0.1l-1-1.4l-0.6-0.1l0.7,0l1,1.4l1.1,0c0,0,0.1,0.6,0.1,0.6C98.2,149.9,98.1,149.9,98,150
			z"/>
	</g>
	<linearGradient id="SVGID_1_" gradientUnits="userSpaceOnUse" x1="181.2682" y1="56.6934" x2="260.0446" y2="56.6934">
		<stop  offset="0" style="stop-color:#E7236A"/>
		<stop  offset="1" style="stop-color:#EB5C59"/>
	</linearGradient>
	<path class="st7" d="M259.2,70.7h-10.1V48.2c-1.7-0.2-3.4-0.4-5.1-0.5c-1.7-0.1-3.4-0.2-5.1-0.2c-1.6,0-3.1,0.1-4.6,0.2
		c-1.5,0.1-3,0.3-4.6,0.5v22.5h-20.1L238.6,12c-2.6-2.1-5.4-3.6-8.4-4.6c-2.9-1-6-1.7-9.2-2l0,0.1c0.4,0.6,0.7,1.2,0.8,1.9
		c0.4,1.7-0.2,3.4-1.3,4.6c1.4,0.6,2.5,1.9,2.9,3.6c0.6,2.7-1.1,5.3-3.7,6c0,0.2,0.1,0.3,0.1,0.5c0.6,2.7-1.2,5.4-3.9,6
		c-0.9,0.2-1.8,0.1-2.7-0.2c-0.1,2.2-1.7,4.2-4,4.7c-0.6,0.1-1.2,0.1-1.7,0.1l-26.3,53.1l1.3,2h47.2v19.7c1.7,0.2,3.4,0.4,5.1,0.5
		c1.7,0.1,3.4,0.2,5.1,0.2c1.6,0,3.1-0.1,4.6-0.2c1.5-0.1,3-0.3,4.6-0.5V87.7h10.1c0.3-1.3,0.5-2.7,0.6-4.2c0.1-1.5,0.2-2.9,0.2-4.4
		C260,76.2,259.8,73.4,259.2,70.7z"/>
	<linearGradient id="SVGID_2_" gradientUnits="userSpaceOnUse" x1="4.3499" y1="57.6582" x2="79.8547" y2="57.6582">
		<stop  offset="0" style="stop-color:#E7236A"/>
		<stop  offset="1" style="stop-color:#EB5C59"/>
	</linearGradient>
	<path class="st8" d="M79,71.6H68.9V49.2c-1.7-0.2-3.4-0.4-5.1-0.5c-1.7-0.1-3.4-0.2-5.1-0.2c-1.6,0-3.1,0.1-4.6,0.2
		c-1.5,0.1-3,0.3-4.6,0.5v22.5H29.4l28.9-58.7C55.7,10.9,53,9.4,50,8.4c-2.9-1-6-1.7-9.2-2L4.3,80c0.4,0.1,0.8,0.3,1.2,0.5
		c2.1,1.1,3.4,3.2,3.6,5.4c1.9-0.9,4.2-0.9,6.2,0.2c1.1,0.6,2,1.5,2.6,2.5h31.6v19.7c1.7,0.2,3.4,0.4,5.1,0.5
		c1.7,0.1,3.4,0.2,5.1,0.2c1.6,0,3.1-0.1,4.6-0.2c1.5-0.1,3-0.3,4.6-0.5V88.6H79c0.3-1.3,0.5-2.7,0.6-4.2c0.1-1.5,0.2-2.9,0.2-4.4
		C79.9,77.2,79.6,74.3,79,71.6z"/>
	<g>
		<g>
			<polygon class="st3" points="77.5,97.5 75.7,91.1 77.5,87 75.8,85.8 76.6,81.5 79.3,78.6 79.6,75.4 82.4,73.7 85.4,76.9 89,87.3 
				90.8,95.9 90.7,102.4 			"/>
			<polygon class="st3" points="103.5,37.2 104.2,34.2 106.6,33.3 107.8,29.8 108.3,28.2 110.4,28.8 109.8,26.7 113.9,24.7 
				119.6,26.9 122.3,31.7 117.7,37.3 			"/>
			<path class="st9" d="M254.8,140.7l-90.1-38.2c-3.7-1.6-5.5-5.9-3.9-9.6l0,0c1.6-3.7,5.9-5.5,9.6-3.9l90.1,38.2
				c3.7,1.6,5.5,5.9,3.9,9.6l0,0C262.9,140.5,258.6,142.2,254.8,140.7z"/>
			<path class="st10" d="M257.9,135.3l-90.1-38.2c-3-1.3-4.7-4.3-4.4-7.4c-1.1,0.8-2,1.8-2.5,3.1v0c-1.6,3.7,0.2,8,3.9,9.6
				l90.1,38.2c3.7,1.6,8-0.2,9.6-3.9c0.3-0.7,0.5-1.5,0.5-2.2C263,136,260.3,136.4,257.9,135.3z"/>
			<path class="st10" d="M191.2,97.8L170.4,89c-3.7-1.6-8,0.2-9.6,3.9v0c-1.6,3.7,0.2,8,3.9,9.6l20.5,8.7
				C187.7,107,189.7,102.5,191.2,97.8z"/>
			
				<ellipse transform="matrix(0.2488 -0.9686 0.9686 0.2488 22.4862 187.916)" class="st11" cx="132.4" cy="79.5" rx="51.3" ry="51.3"/>
			<g>
				<path class="st12" d="M101.9,88.4l3-0.7l5.2-2.1l3.8-4.3l1.1-4.8l1-4.4c0,0-2.2-2.2-5.2-4.5c2.4,9.3-6.6,13.3-6.6,13.3l0.1,0.8
					l-0.8-0.3c-0.9,0.7-2.9,1-2.9,1l0.1,0.8l-0.7-0.6c-4.2,1.1-7.4-1.4-7.4-1.4c-0.2,2.4-2.7,8-4.8,9.2l0,2.2l-1.8-1.8
					c0,0-1.8,1.2-4.2-2.1c0,0,0,0,0,0c0.5,2.7,1.2,5.4,2.1,8c2-0.3,4.1-1,5.9-2.6c2.1-1.9,3.6-4.4,4.1-7.7l0.3,0.3l2.2,1.8
					L101.9,88.4z"/>
				<path class="st12" d="M111.1,43.9c11.2,5.1,6.9,16.8,6.9,16.8l0.3,0.7l-0.8,0.3c-0.7,1.3-1.6,2.1-1.6,2.1l0.1,0.8l-1.2,0.2
					c-1.2,1.4-3.9,2.7-3.9,2.7c0.7,1.3,2.3,2.1,3.4,1.6c3.6-1.6,7.3-7.5,6.8-14.6c-0.7-9.1-7.7-11.8-7.7-11.8c3.6-5,4-9.2,3.3-12.2
					c-0.8,0.3-1.7,0.6-2.5,0.9c-0.5,0.2-0.9,0.4-1.4,0.6l-0.4,0.6c2.7,4.7-0.3,8.2-0.3,8.2l-1.1,0.5l0.5,0.9L111.1,43.9z"/>
			</g>
			<path class="st3" d="M93.1,82.2c0,0,3.3,2.6,7.5,1.5l0.8,0.7l-0.1-0.8c0,0,2-0.3,3-1l0.8,0.4l-0.1-0.8c0,0,9.2-4.1,6.7-13.6
				c3.1,2.4,5.3,4.5,5.3,4.5l-1,4.5l-1.2,4.9l-3.9,4.4l-5.3,2.2l-3.1,0.7L97,89.6l-2.3-1.8l-1.9-1.4"/>
			<path class="st5" d="M113.9,24.7c1.6,1.7,2.7,3.8,3.3,6.3c1,4.5-0.5,9-3.5,12.1c3.8,1.7,6.7,5.1,7.6,9.4c1.5,7-2.8,13.9-9.7,15.8
				c0.1,0.4,0.2,0.8,0.3,1.3c1.6,7.3-3.1,14.4-10.3,16c-2.4,0.5-4.9,0.3-7.1-0.4c-0.3,5.9-4.5,11.2-10.6,12.5
				c-2.2,0.5-4.4,0.4-6.5-0.2c0.3,0.8,0.6,1.6,0.9,2.5c11.3,29.8,44.7,44.8,74.5,33.5c29.8-11.3,44.8-44.7,33.5-74.5
				C175.3,29.8,143.2,14.9,113.9,24.7z"/>
			<g class="st13">
				<path class="st9" d="M113.7,43.2c0.3,0.1,0.5,0.3,0.8,0.4c1.1-1.6,1.9-3.3,2.2-5.2C116.1,40.1,115.1,41.8,113.7,43.2z"/>
				<path class="st9" d="M83.5,99.7c5.4-1.2,9.4-5.5,10.4-10.6c-1.5,4.2-5.1,7.6-9.8,8.6c-2.2,0.5-4.4,0.4-6.5-0.2
					c0.3,0.8,0.5,1.6,0.8,2.3C80,100.1,81.7,100.1,83.5,99.7z"/>
				<path class="st9" d="M185.8,61c4.4,11.6,4.8,23.7,1.9,34.9c3.5-11.7,3.3-24.6-1.4-36.9c-11.1-29.1-43.2-44.1-72.4-34.2
					c0.4,0.5,0.8,1,1.2,1.5C143.9,17.5,175,32.4,185.8,61z"/>
				<path class="st9" d="M101.1,87.6c5.5-1.2,9.4-5.5,10.4-10.7c-1.5,4.3-5.1,7.7-9.9,8.7c-2.4,0.5-4.9,0.3-7.1-0.4
					c0,0.7-0.1,1.4-0.3,2.1C96.5,88,98.8,88.1,101.1,87.6z"/>
				<path class="st9" d="M112.1,70.1c4.6-1.6,7.9-5.6,8.8-10.2c-1.4,4-4.8,7.3-9.2,8.5c0.1,0.4,0.2,0.8,0.3,1.3
					C112,69.8,112.1,70,112.1,70.1z"/>
			</g>
			<g class="st14">
				<path class="st9" d="M158.5,73.2c0.1,0,0.1-0.1-0.1-0.3C158.4,73,158.4,73.2,158.5,73.2z"/>
				<path class="st9" d="M117.9,27.5c1.7,2,2.4,7.1,1.4,10.6c17.4-0.7,63.4,1.8,68.1,42.6c0.1-6.7-1-13.6-3.5-20.3
					C173.6,33.3,142.4,18.9,117.9,27.5z"/>
				<path class="st9" d="M119.7,44.6L119.7,44.6C119.7,44.7,119.8,44.6,119.7,44.6c4,3.1,6.5,8.3,3.3,15.7
					c23,3.6,33.9,10.9,35.4,12.5c-0.1-2.1,4.6-15.7,4.6-15.7C144.5,45.9,119.7,44.6,119.7,44.6z"/>
			</g>
			<path class="st1" d="M160.5,118.8c2.6,0,4.7-2.1,4.7-4.7s-2.1-4.7-4.7-4.7c-2.6,0-4.7,2.1-4.7,4.7S157.9,118.8,160.5,118.8z
				 M116.9,103.9c0,2.6,2.1,4.7,4.7,4.7c2.6,0,4.7-2.1,4.7-4.7c0-2.6-2.1-4.7-4.7-4.7C119,99.2,116.9,101.3,116.9,103.9z
				 M168.2,112.3c0.6-0.6,0.6-1.5,0-2c-0.6-0.6-1.5-0.6-2,0c-0.6,0.6-0.6,1.5,0,2C166.7,112.9,167.6,112.9,168.2,112.3z M118.1,97.6
				c1.1,0,2-0.9,2-2s-0.9-2-2-2c-1.1,0-2,0.9-2,2S117,97.6,118.1,97.6z M111.7,112.3c2.1-1.4,3.6-3.8,3.6-6.6c0-4.3-3.5-7.8-7.8-7.8
				c-1.6,0-3.1,0.5-4.3,1.3c0-1.9-1.6-3.4-3.5-3.4c-0.6,0-1.2,0.2-1.8,0.5c-1.6-2.5-2.6-4.7-3.3-6.2c-1.8,3-4.7,5.2-8.4,6
				c-2.1,0.5-4.3,0.3-6.2-0.2c0.3,0.8,0.5,1.6,0.8,2.4c10.8,28.6,42.8,42.9,71.3,32.1c6.3-2.4,11.9-5.8,16.7-10
				C141.9,128.9,123.5,121.9,111.7,112.3z"/>
			<polyline class="st4" points="89,96.7 88.5,103.1 91.3,104.6 96.3,109.6 95.8,109.6 90.2,105.1 88.5,104.1 87.8,102.1 87.8,97 
							"/>
			<g>
				<path class="st4" d="M114.7,72l0.4,0.5l1.8-0.3l2.4,3l0.8,4.8l-0.1-3.8l1.6-1.6l3.1,1.6l-2.7-2.8l0.3-4.8l-4-2.6l0.2-1
					c0,0,3.9-2.9,4.2-9.1c0.5-8.4-7.7-13.1-7.7-13.1c1.6-2.3,3.1-5.5,3-10.4c-0.1-4.9-4.1-7.7-4.1-7.7c1.6,1.7,2.7,3.8,3.3,6.3
					c1,4.5-0.5,9-3.5,12.1c3.8,1.7,6.7,5.1,7.6,9.4c1.5,7-2.8,13.9-9.7,15.8c0.1,0.4,0.2,0.8,0.3,1.3l1.4,0.3L114.7,72z"/>
				<polyline class="st4" points="117.6,31.3 120.2,30.5 125.8,31.4 130,30.7 125.6,31.9 122.3,31.7 119.5,31.9 117.9,32.9 
					117.6,32.8 				"/>
				<polyline class="st4" points="115.9,27 120.5,28 123.1,25.4 121.2,28.2 120.5,28.9 118,28.5 116.7,28.2 				"/>
				<polygon class="st4" points="116.3,72.3 118.8,76.1 119.3,80.1 121.8,83.5 119.9,80 119.3,75 117.1,71.9 				"/>
				<path class="st4" d="M88.2,97.1c6.8-3.5,6.8-11.2,6.8-11.2s7,2.5,12.8-2.9c6.7-6.2,4.1-13.4,4.1-13.4c1.6,7.3-3.1,14.4-10.3,16
					c-2.4,0.5-4.9,0.3-7.1-0.4c-0.3,5.9-4.5,11.2-10.6,12.5c-2.2,0.5-4.4,0.4-6.5-0.2C77.5,97.5,81.4,100.6,88.2,97.1z"/>
			</g>
			<path class="st3" d="M94.6,85.2c0,0-0.1-1.7-1.5-3c-0.2,2.4-2.8,8.2-4.9,9.3l0,2.3L86.3,92c0,0-1.8,1.3-4.2-2.1
				c-2.4-3.4-2.8-6.7-2.8-6.7l-1.8,5l-1.7,4.6l1.8,4.7c0,0,7.7,2.4,12.7-2.2C92.9,93,94.5,89.7,94.6,85.2z"/>
			<path class="st3" d="M111.7,68.4c0,0,2.8-1.3,4-2.8l1.2-0.2l-0.1-0.8c0,0,0.9-0.8,1.6-2.2l0.8-0.3l-0.3-0.7
				c0,0,4.4-11.9-7.1-17.1l0.4-1.6l-0.6-0.9l1.1-0.5c0,0,3.1-3.6,0.3-8.4l0.6-1l-2.1,0.7l-1.6-0.3l1.2-2.2l1.8-3l0.8-2.3
				c0,0,8.6,6.8,0.2,18.4c0,0,7.2,2.7,7.9,12C122.7,64.5,115.5,67.4,111.7,68.4z"/>
			<path class="st3" d="M86.3,96.8l1.5,7.8l3.3,1.5l4.8,4.3L98,115l-1.7-5.4l-5.1-4.5c0,0-2.7-1.6-2.7-2c0-0.5-0.3-7.3-0.3-7.3
				L86.3,96.8z"/>
			<polygon class="st3" points="116.5,34.8 120.7,32 125.9,32.3 130.3,30.6 126,31.6 120.3,30.8 116.4,32.7 117.6,29.1 120.8,29.4 
				123.9,26.7 128.1,26.6 123.1,25.4 120.7,28.2 114.3,27.1 114.6,29.2 			"/>
			<path class="st15" d="M169.9,29.8l-14.8-6.7l-1.4,3c1.7,1.4,2.8,4,3.3,7.5c0.1,0.6,0.1,1.2,0.2,1.8c0,0.1,0,0.3,0,0.5
				c0,0.5,0.1,1.1,0.1,1.6c0,0.2,0,0.4,0,0.6c0,0.7,0,1.4,0,2.1c0,0.2,0,0.3,0,0.5c0,0.6-0.1,1.3-0.1,2c0,0.2,0,0.4,0,0.6
				c-0.1,0.8-0.2,1.6-0.3,2.5c0,0.2-0.1,0.4-0.1,0.5c-0.1,0.7-0.2,1.5-0.3,2.3c0,0.2-0.1,0.4-0.1,0.5c-0.2,0.9-0.3,1.8-0.5,2.8
				c0,0.2-0.1,0.4-0.1,0.6c-0.2,0.8-0.4,1.7-0.6,2.5c0,0.2-0.1,0.3-0.1,0.5c-0.2,1-0.5,2-0.7,3c-0.1,0.2-0.1,0.4-0.2,0.7
				c-0.2,0.9-0.5,1.8-0.8,2.8c0,0.1-0.1,0.3-0.1,0.4c-0.3,1-0.6,2.1-1,3.2c-0.1,0.2-0.2,0.5-0.2,0.7c-0.3,1-0.7,2-1,3
				c0,0.1-0.1,0.2-0.1,0.4c-0.4,1.1-0.8,2.2-1.2,3.3c-0.1,0.3-0.2,0.5-0.3,0.8c-0.4,1.1-0.8,2.1-1.2,3.2c0,0.1-0.1,0.1-0.1,0.2
				c-0.5,1.1-0.9,2.3-1.4,3.4c-0.1,0.3-0.2,0.6-0.4,0.8c-0.5,1.2-1,2.3-1.5,3.5c-0.5,1.2-1.1,2.3-1.6,3.5c-0.1,0.3-0.3,0.6-0.4,0.9
				c-0.5,1.1-1,2.1-1.5,3.1c0,0.1-0.1,0.2-0.1,0.2c-0.6,1.1-1.1,2.2-1.7,3.2c-0.1,0.3-0.3,0.5-0.4,0.8c-0.5,0.9-1,1.9-1.5,2.8
				c-0.1,0.1-0.1,0.2-0.2,0.4c-0.6,1-1.1,2-1.7,3c-0.1,0.2-0.3,0.5-0.4,0.7c-0.5,0.8-1,1.7-1.5,2.5c-0.1,0.1-0.2,0.3-0.3,0.4
				c-0.6,0.9-1.2,1.8-1.8,2.7c-0.1,0.2-0.3,0.4-0.4,0.6c-0.5,0.8-1,1.5-1.5,2.2c-0.1,0.2-0.2,0.3-0.3,0.5c-0.6,0.8-1.2,1.6-1.7,2.4
				c-0.1,0.2-0.3,0.3-0.4,0.5c-0.5,0.6-1,1.3-1.5,1.9c-0.1,0.2-0.2,0.3-0.4,0.5c-0.6,0.7-1.1,1.4-1.7,2.1c-0.1,0.1-0.2,0.3-0.4,0.4
				c-0.5,0.5-0.9,1.1-1.4,1.6c-0.1,0.1-0.3,0.3-0.4,0.4c-0.6,0.6-1.1,1.1-1.6,1.7c-0.1,0.1-0.2,0.2-0.4,0.3
				c-0.4,0.4-0.9,0.8-1.3,1.2c-0.1,0.1-0.3,0.3-0.4,0.4c-0.5,0.4-1,0.9-1.5,1.3c-0.1,0.1-0.2,0.2-0.4,0.3c-0.4,0.3-0.8,0.6-1.2,0.9
				c-3.3,2.3-6.3,3.1-8.7,2.3l-1.3,2.9l15,6.8l0-0.1c0.2,0.1,0.3,0.2,0.5,0.3c10.1,4.5,29.5-16.6,43.2-47.1
				C177,62.8,180,34.3,169.9,29.8z"/>
			<g class="st14">
				<path class="st9" d="M171.8,70.2c-6.5-2.9-13.2-5.4-18.9-7.4c-0.3,0.9-0.5,1.7-0.8,2.6c8.1,2.8,14.2,5.4,18.9,7.6
					C171.3,72.1,171.5,71.1,171.8,70.2z"/>
				<path class="st9" d="M157,33.6c0.1,0.6,0.1,1.2,0.2,1.8c0,0.1,0,0.3,0,0.5c0,0.5,0.1,1.1,0.1,1.6c0,0.2,0,0.4,0,0.6
					c0,0.7,0,1.4,0,2.1c0,0.2,0,0.3,0,0.5c0,0.5-0.1,1.1-0.1,1.7c7.2,2.6,13.5,5.7,18.5,8.6c0.5-5.3,0.3-9.9-0.5-13.4
					c-7.4-4.7-14.6-7.7-19.9-9.6C156.1,29.3,156.7,31.3,157,33.6z"/>
				<path class="st9" d="M156.4,47.6c0,0.3-0.1,0.6-0.1,0.9c0,0.2-0.1,0.4-0.1,0.5c-0.2,0.9-0.3,1.8-0.5,2.8c0,0.2-0.1,0.4-0.1,0.6
					c-0.2,0.8-0.4,1.7-0.6,2.5c0,0.2-0.1,0.3-0.1,0.5c-0.2,0.8-0.4,1.6-0.6,2.4c7,2.4,13.4,5.4,18.6,8.1c0.9-3.6,1.6-7,2.1-10.2
					C168.8,52.3,162.3,49.7,156.4,47.6z"/>
			</g>
			<path class="st1" d="M154.1,109.1c0.3-0.6,0.6-1.2,0.6-1.9c0-2-1.6-3.6-3.6-3.6c-1.3,0-2.4,0.7-3,1.7c-0.4-0.6-1.1-1-1.8-1
				c-0.9,0-1.6,0.5-2,1.3c-2.7-1.1-5.4-2.3-8.2-3.7c-0.2,0.3-0.4,0.7-0.6,1.1c-0.1,0.2-0.3,0.5-0.4,0.7c-0.5,0.8-1,1.7-1.5,2.5
				c-0.1,0.1-0.2,0.3-0.3,0.4c-0.6,0.9-1.2,1.8-1.8,2.7c-0.1,0.1-0.1,0.2-0.2,0.3c4.9,2.5,11.6,5.4,19.3,7.3
				c1.6-2.4,3.1-4.8,4.6-7.5C154.7,109.3,154.4,109.2,154.1,109.1z"/>
			<g>
				<g>
					<path class="st1" d="M127.8,114.4c-0.1,0.2-0.3,0.4-0.4,0.5c-0.1,0.2-0.3,0.3-0.4,0.5c-0.5,0.6-1,1.3-1.5,1.9
						c-0.1,0.2-0.2,0.3-0.4,0.5c-0.6,0.7-1.1,1.4-1.7,2.1c-0.1,0.1-0.2,0.3-0.4,0.4c-0.5,0.5-0.9,1.1-1.4,1.6
						c-0.1,0.1-0.3,0.3-0.4,0.4c-0.6,0.6-1.1,1.1-1.6,1.7c-0.1,0.1-0.2,0.2-0.4,0.3c-0.4,0.4-0.9,0.8-1.3,1.2
						c-0.1,0.1-0.3,0.3-0.4,0.4c-0.5,0.4-1,0.9-1.5,1.3c-0.1,0.1-0.2,0.2-0.4,0.3c-0.4,0.3-0.8,0.6-1.2,0.9
						c-1.6,1.1-3.1,1.8-4.5,2.2c3.8,2.3,11.1,5.9,21.1,7.7c4.9-3.2,10.3-8.7,15.8-16.1C141.5,120.3,134.7,117.8,127.8,114.4z"/>
				</g>
			</g>
			<g class="st16">
				<path class="st9" d="M155.5,23.3c-2.2-1-4.9-0.8-7.8,0.5c1.5,0.4,3,0.9,4.5,1.4c0,0,0,0,0,0c0.1,0,0.2,0.1,0.4,0.1
					c8.7,3.9,5.1,30.6-7.9,59.6c-13,29-30.6,49.3-39.3,45.5c0,0-0.1-0.1-0.1-0.1c0,0,0,0,0,0c-1.5-0.8-2.9-1.6-4.3-2.5
					c1,3.1,2.6,5.2,4.8,6.2c10.1,4.5,29.2-14.5,43.7-46.9C164.6,53.3,165.6,27.8,155.5,23.3z"/>
			</g>
			<g>
				<path class="st17" d="M155.5,23.3c-2.2-1-4.9-0.8-7.8,0.5c1.5,0.4,3,0.9,4.5,1.4c0,0,0,0,0,0c0.1,0,0.2,0.1,0.4,0.1
					c8.7,3.9,5.1,30.6-7.9,59.6c-13,29-30.6,49.3-39.3,45.5c0,0-0.1-0.1-0.1-0.1c0,0,0,0,0,0c-1.5-0.8-2.9-1.6-4.3-2.5
					c1,3.1,2.6,5.2,4.8,6.2c10.1,4.5,29.5-16.6,43.2-47.1C162.6,56.3,165.6,27.8,155.5,23.3z"/>
			</g>
			<path class="st3" d="M111.7,68.4l2.4,0.7l1.2,3.2l1.8-0.3l1.8,2.2l2.8-0.4l3,2.5l-3.4-1.8l-1.6,1.9l0.4,3.6l2.4,3.8l-1.8,2.1
				l1-2.4l-2.2-3.5l-0.6-3.9l-0.7-1.7l-1.8-3.7l-1.8,1.3l-1.2-2.3l-1.6,0C112,69.7,111.7,69.3,111.7,68.4z"/>
			<polygon class="st3" points="120.3,74.3 120.8,68.9 117.3,66.4 118.8,63.7 118.4,66 121.9,68.7 121.7,73.7 			"/>
		</g>
		<g>
			<polygon class="st3" points="62.5,71.1 66,71.9 67.4,73 68.1,74.1 70.9,75.6 76.7,80.9 74.3,83.7 72.5,82.7 70.3,80.5 72.3,83.1 
				70.9,84.6 69,84.8 67.9,84.7 66.3,86.3 64.4,84.5 63.3,81.4 62.7,78.3 			"/>
			<polyline class="st4" points="62.5,71.1 74.1,80.4 72.5,82.7 67.1,78.7 71.2,82.9 69,84.8 67.6,84.6 66.3,86.3 65.5,83.6 
				63.2,79.9 			"/>
			<path class="st5" d="M60.8,83.2l2.6,1l1.1,1.2l1,0.4l0.4,0.1l0.1,0.2l0.3,0.1l0.9-1.7l1.7,0.3l1.9-2L69,80.7l-0.8-0.3L68,79.7
				l-0.9-1l5.4,4l1.1-2.1l-11.1-9.6c0,0-0.9,0.6-2,1.7l0.2,0.3l-0.5,0c-0.2,0.3-0.5,0.5-0.8,0.9l-0.2,0.7l-0.4,0.2
				c-0.5,0.7-0.9,1.4-1.3,2.3l0.2,0.5l-0.5,0.1C57.1,78,57,78.3,57,78.6l1.6,1.2c0,0-1.1-0.3-1.7-0.5c-0.2,0.9-0.3,1.8-0.3,2.8
				l2.8,1.2L60.8,83.2z"/>
			<polyline class="st3" points="69.2,80.7 68.3,80.4 68.2,79.7 			"/>
			<polygon class="st4" points="70.3,82.2 68.5,81.5 67.9,81.7 66.4,80.3 66.9,80.1 66.7,79.2 64.8,79 63,76.6 62,76.3 63.2,76.2 
				64.9,78.6 65.3,78.9 66.9,79.1 67.1,79.9 66.6,80.4 67.2,81 67.9,81.5 69.7,81.6 			"/>
			<path class="st3" d="M67.1,78.7l-2,0l-1.8-2.4l-1.3,0l1.1,0.2l1.7,2.4l2,0.2l0.1,1.3l0.4,0.5l0.4,0.5l2.4,0.7l-0.5-0.6l-1.8,0.2
				l-1.3-1.2c0,0,0.6-0.5,0.7-0.6C67.2,79.7,67.1,78.7,67.1,78.7z"/>
		</g>
		<g>
			<polygon class="st3" points="103.4,33.8 101.2,34.3 100.4,35 99.9,35.7 98.3,36.6 94.6,39.9 96.1,41.6 97.2,41 98.6,39.7 
				97.4,41.3 98.2,42.2 99.4,42.3 100.1,42.2 101.1,43.2 102.3,42.2 102.9,40.2 103.3,38.3 			"/>
			<polyline class="st4" points="103.4,33.8 96.2,39.6 97.2,41 100.6,38.5 98,41.2 99.4,42.3 100.3,42.2 101.1,43.2 101.6,41.6 
				103,39.3 			"/>
			<path class="st5" d="M104.5,41.4l-1.6,0.6l-0.7,0.7l-0.6,0.3l-0.3,0l-0.1,0.1l-0.2,0.1l-0.6-1l-1.1,0.2l-1.2-1.2l1.2-1.3l0.5-0.2
				l0.1-0.5l0.6-0.6L97.2,41l-0.7-1.3l6.9-5.9c0,0,0.6,0.4,1.3,1l-0.1,0.2l0.3,0c0.2,0.2,0.3,0.3,0.5,0.5l0.1,0.4l0.3,0.1
				c0.3,0.4,0.6,0.9,0.8,1.4l-0.1,0.3l0.3,0.1c0.1,0.2,0.1,0.4,0.2,0.6l-1,0.7c0,0,0.7-0.2,1.1-0.3c0.1,0.5,0.2,1.1,0.2,1.7
				l-1.8,0.8L104.5,41.4z"/>
			<polyline class="st3" points="99.3,39.8 99.9,39.6 99.9,39.2 			"/>
			<polygon class="st4" points="98.6,40.7 99.7,40.3 100.1,40.4 101,39.5 100.7,39.4 100.8,38.9 102,38.7 103.1,37.2 103.8,37 
				103,37 101.9,38.5 101.7,38.7 100.7,38.8 100.6,39.3 100.9,39.6 100.5,39.9 100.1,40.3 99,40.3 			"/>
			<path class="st3" d="M100.6,38.5l1.2,0l1.1-1.5l0.8,0l-0.7,0.1l-1.1,1.5l-1.2,0.1l0,0.8l-0.3,0.3l-0.3,0.3l-1.5,0.4l0.3-0.4
				l1.1,0.1l0.8-0.7c0,0-0.4-0.3-0.4-0.4C100.5,39.2,100.6,38.5,100.6,38.5z"/>
		</g>
		<g>
			<path class="st3" d="M104.3,29.6c0-1.4,0-2.7,0.1-4.1l-1.1-1c-0.2,0-0.4-0.1-0.6-0.2c-0.3,0-0.6,0-0.8-0.1
				c-0.1,0-0.2-0.1-0.3-0.1l-0.9,0.9l0.7,1.1l1.5,1.3l-1.7-1.1l-0.8,0.9l-0.1,1.2l0.1,0.7l-0.9,1l0.6,0.6c0.1,0,0.1,0,0.2,0
				c0.8,0.1,1.6,0.1,2.5,0.1C103.1,30.3,103.7,29.9,104.3,29.6z"/>
			<path class="st4" d="M104.3,29.6c0-0.9,0-1.8,0-2.8l-1.7-1.8l-1.3,1.1l2.7,3.1l-2.8-2.4l-1.1,1.5l0.2,0.8l-1,0.8l1.7,0.4l0.5,0.3
				c0.4,0,0.7,0,1.1,0C103.1,30.3,103.7,29.9,104.3,29.6z"/>
			<path class="st5" d="M104.3,29.6c0-0.8,0-1.6,0-2.5l-1.8-1.8l-1.2,0.8l2.7,3.1l-0.7-0.5l-0.5,0l-0.2-0.5l-1.4-1.1l-1.1,1.3l0.2,1
				l-1,0.6l0.1,0.2l0.1,0.1l0.1,0.3l0,0c0.2,0,0.3,0,0.5,0c0.8,0.1,1.6,0.1,2.5,0.1C103.1,30.3,103.7,29.9,104.3,29.6z"/>
			<polyline class="st3" points="102.6,28.1 102.9,28.7 103.3,28.7 			"/>
		</g>
		<g>
			<path class="st3" d="M61,143.2c-2.2,0.7-4.3,1.4-6.5,2.1l-1.1,2.3c0,0.3,0.1,0.7,0.1,1c0.2,0.5,0.3,0.9,0.3,1.4
				c0,0.2,0,0.3,0,0.5l2,1l1.3-1.6l1.2-3l-0.9,3.2l1.9,0.8l1.9-0.5l1-0.6l2.1,0.9l0.6-1.2c0-0.1-0.1-0.2-0.1-0.3
				c-0.3-1.3-0.7-2.7-1.1-4C62.7,144.7,61.8,144,61,143.2z"/>
			<path class="st4" d="M61,143.3c-1.5,0.5-2.9,1-4.4,1.4l-1.9,3.6l2.5,1.5l3.5-6l-2.2,5.7l2.9,0.9l1.2-0.8l1.8,1.1l-0.2-2.9
				l0.1-0.9c-0.2-0.6-0.4-1.2-0.5-1.8C62.7,144.7,61.8,144,61,143.3z"/>
			<path class="st5" d="M61,143.3c-1.3,0.4-2.6,0.9-3.9,1.3l-1.9,3.8l1.9,1.5l3.5-6l-0.5,1.4l0.2,0.8l-0.7,0.6l-1,2.8l2.6,1.1
				l1.5-0.9l1.6,1.2l0.2-0.3l0-0.2l0.4-0.2l0.1-0.1c-0.1-0.3-0.2-0.5-0.3-0.8c-0.3-1.3-0.7-2.7-1.1-4C62.7,144.7,61.8,144,61,143.3z
				"/>
			<polyline class="st3" points="59.4,146.6 60.2,145.9 60,145.2 			"/>
		</g>
		
			<ellipse transform="matrix(0.1536 -0.9881 0.9881 0.1536 75.5404 172.561)" class="st18" cx="138.5" cy="42.2" rx="11.3" ry="15.3"/>
		<path class="st18" d="M137.2,54.4c-0.4,2.6,2.1,5.1,5.6,5.6c3.5,0.5,6.6-1.1,7-3.6c0.4-2.6-2.1-5.1-5.6-5.6
			C140.7,50.2,137.6,51.9,137.2,54.4z"/>
		<path class="st18" d="M179.7,72.8c-2.2,0.4-3.5,3.6-2.9,7.3c0.6,3.7,2.9,6.4,5.1,6c2.2-0.4,3.5-3.6,2.9-7.3
			C184.2,75.1,181.9,72.4,179.7,72.8z"/>
		<g class="st14">
			<path class="st9" d="M106.7,130.8c-0.3,0-0.7-0.1-1-0.2l-0.1,0.3C106,130.9,106.4,130.9,106.7,130.8z"/>
			<path class="st9" d="M169.9,29.8l-14.8-6.7l-0.3,0.7l13.3,6c10.1,4.5,7.2,33-6.6,63.6c-12.2,27.1-28.7,46.7-39.4,47.7
				c10.5,1.2,28.3-19.1,41.1-47.7C177,62.8,180,34.3,169.9,29.8z"/>
		</g>
	</g>
	<g class="st19">
		<g>
			<path class="st9" d="M97.9,91.3c6.4,0.7,12.6-2.5,15.7-8.1c0.8-1.4-1.4-2.7-2.2-1.3c-2.8,4.9-8,7.5-13.6,6.8
				C96.3,88.6,96.3,91.1,97.9,91.3L97.9,91.3z"/>
		</g>
		<g>
			<path class="st9" d="M114.3,80.1c1.6,0,1.6-2.5,0-2.5C112.7,77.6,112.7,80.1,114.3,80.1L114.3,80.1z"/>
		</g>
		<g>
			<path class="st9" d="M119.5,42.3c1.6-2.2,2.5-4.7,2.8-7.4c0.2-1.6-2.3-1.6-2.5,0c-0.3,2.3-1.1,4.3-2.5,6.2
				C116.4,42.4,118.6,43.6,119.5,42.3L119.5,42.3z"/>
		</g>
		<g>
			<path class="st9" d="M165.7,38.4c-1,13.2-4,25.9-9,38.1c-0.9,2.2,2.7,3.2,3.6,1c5.1-12.5,8.1-25.6,9.1-39.1
				C169.6,36,165.9,36,165.7,38.4L165.7,38.4z"/>
		</g>
		<g>
			<path class="st9" d="M156,85c2.4,0,2.4-3.8,0-3.8C153.6,81.3,153.6,85,156,85L156,85z"/>
		</g>
		<g>
			<path class="st9" d="M153.6,90c2.4,0,2.4-3.8,0-3.8C151.1,86.2,151.1,90,153.6,90L153.6,90z"/>
		</g>
		<g>
			<path class="st9" d="M89.8,77c0.3-4.2,1-8.3,2.2-12.4c0.9-3.1-4-4.4-4.8-1.3c-1.2,4.5-2,9-2.3,13.7C84.6,80.2,89.6,80.2,89.8,77
				L89.8,77z"/>
		</g>
		<g>
			<path class="st9" d="M93,59.1c3.2,0,3.2-5,0-5C89.8,54.1,89.8,59.1,93,59.1L93,59.1z"/>
		</g>
		<g>
			<path class="st9" d="M96.9,52.1c3.2,0,3.2-5,0-5C93.7,47.1,93.7,52.1,96.9,52.1L96.9,52.1z"/>
		</g>
	</g>
	<g class="st20">
		<g>
			<path class="st9" d="M119.8,155.6c5,0.4,9.9,0.3,14.9-0.5c1.4-0.2,0.8-2.4-0.6-2.1c-4.7,0.7-9.5,0.8-14.3,0.4
				C118.4,153.3,118.4,155.5,119.8,155.6L119.8,155.6z"/>
		</g>
		<g>
			<path class="st9" d="M137.5,154.6c1.4,0,1.4-2.2,0-2.2C136.1,152.4,136.1,154.6,137.5,154.6L137.5,154.6z"/>
		</g>
		<g>
			<path class="st9" d="M163,143.5c1.4,0,1.4-2.2,0-2.2C161.6,141.2,161.6,143.5,163,143.5L163,143.5z"/>
		</g>
		<g>
			<path class="st9" d="M161,143.2c0,0-0.1,0-0.1,0c-1.4,0-1.4,2.2,0,2.2c0,0,0.1,0,0.1,0C162.5,145.4,162.5,143.2,161,143.2
				L161,143.2z"/>
		</g>
		<g>
			<path class="st9" d="M150.6,148.5c2.4-0.2,4.7-0.7,7-1.7c1.3-0.5,0.7-2.7-0.6-2.1c-2.1,0.8-4.2,1.4-6.4,1.6
				C149.2,146.4,149.2,148.6,150.6,148.5L150.6,148.5z"/>
		</g>
		<g>
			<path class="st9" d="M77,166.2c3.2,0.8,6.5,1.1,9.9,1.3c1.3,0.1,1.3-2,0-2c-3.2-0.2-6.3-0.4-9.3-1.2
				C76.3,164,75.7,165.9,77,166.2L77,166.2z"/>
		</g>
		<g>
			<path class="st9" d="M90.3,167.4c0,0,0.1,0,0.1,0c1.4,0,1.4-2.2,0-2.2c0,0-0.1,0-0.1,0C88.9,165.2,88.9,167.4,90.3,167.4
				L90.3,167.4z"/>
		</g>
		<g>
			<path class="st9" d="M93.8,167.3c0,0,0.1,0,0.1,0c1.4,0,1.4-2.2,0-2.2c0,0-0.1,0-0.1,0C92.4,165.1,92.4,167.3,93.8,167.3
				L93.8,167.3z"/>
		</g>
	</g>
	<path class="st0" d="M185.6,112c-0.8,1.8,1.4,4.5,4.9,6.1c3.5,1.5,7,1.3,7.8-0.6c0.8-1.8-2.2-2.7-5.7-4.2
		C189,111.8,186.4,110.1,185.6,112z"/>
	<path class="st0" d="M199.4,117.7c-0.4,1,0.4,2.2,1.8,2.7c1.4,0.5,2.8,0.1,3.1-0.8c0.4-1-0.8-1.2-2.2-1.7
		C200.8,117.4,199.8,116.7,199.4,117.7z"/>
	<path class="st0" d="M206.3,120.4c-0.2,0.6,0.3,1.4,1.1,1.7c0.8,0.3,1.7,0.1,1.9-0.5c0.2-0.6-0.5-0.7-1.4-1
		C207.1,120.2,206.5,119.8,206.3,120.4z"/>
	<path class="st0" d="M206.4,121.3c0,0,1.6,2.3,1.3,6.3s-2.8,9.8,0.3,10.4c1.4,0.3,1.7-2.4,1.5-4.2c-0.5-3.7-2.1-8.2-0.4-11.9
		C208.2,121.1,206.4,121.3,206.4,121.3z"/>
	<g class="st19">
		<path class="st9" d="M132.7,86.5l-4.9,1.9l-1.9-4.9c-0.8-2-3.1-3.1-5.2-2.2c-2,0.8-3.1,3.1-2.2,5.2l1.9,4.9l-4.9,1.9
			c-2.1,0.8-3.1,3.1-2.3,5.2c0.8,2,3.1,3.1,5.2,2.2l4.9-1.9l1.9,4.9c0.6,1.6,2.1,2.5,3.7,2.5c0.5,0,1-0.1,1.5-0.3
			c2-0.8,3.1-3.1,2.2-5.2l-1.9-4.9l4.9-1.9c1-0.4,1.8-1.1,2.2-2.1c0.4-1,0.4-2.1,0-3.1C137,86.7,134.7,85.7,132.7,86.5z"/>
		<path class="st9" d="M149.2,61.9c-0.4-1-1.2-1.8-2.1-2.2c-1-0.4-2.1-0.4-3.1,0l-4.9,1.9l-1.9-4.9c-0.8-2-3.1-3.1-5.2-2.2
			c-2,0.8-3.1,3.1-2.2,5.2l1.9,4.9l-4.9,1.9c-2,0.8-3.1,3.1-2.2,5.2c0.8,2,3.1,3.1,5.2,2.2l4.9-1.9l1.9,4.9c0.6,1.6,2.1,2.5,3.7,2.5
			c0.5,0,1-0.1,1.5-0.3c2-0.8,3.1-3.1,2.2-5.2L142,69l4.9-1.9c1-0.4,1.8-1.1,2.2-2.1C149.5,64,149.6,62.9,149.2,61.9z"/>
	</g>
	<g>
		<path class="st21" d="M132.7,87l-4.9,1.9l-1.9-4.9c-0.8-2-3.1-3.1-5.2-2.2c-2,0.8-3.1,3.1-2.2,5.2l1.9,4.9l-4.9,1.9
			c-2.1,0.8-3.1,3.1-2.3,5.2c0.8,2,3.1,3.1,5.2,2.2l4.9-1.9l1.9,4.9c0.6,1.6,2.1,2.5,3.7,2.5c0.5,0,1-0.1,1.5-0.3
			c2-0.8,3.1-3.1,2.2-5.2l-1.9-4.9l4.9-1.9c1-0.4,1.8-1.1,2.2-2.1c0.4-1,0.4-2.1,0-3.1C137.1,87.2,134.8,86.2,132.7,87z"/>
		<path class="st21" d="M149.2,62.4c-0.4-1-1.2-1.8-2.1-2.2c-1-0.4-2.1-0.4-3.1,0l-4.9,1.9l-1.9-4.9c-0.8-2-3.1-3.1-5.2-2.2
			c-2,0.8-3.1,3.1-2.2,5.2l1.9,4.9l-4.9,1.9c-2,0.8-3.1,3.1-2.2,5.2c0.8,2,3.1,3.1,5.2,2.2l4.9-1.9l1.9,4.9c0.6,1.6,2.1,2.5,3.7,2.5
			c0.5,0,1-0.1,1.5-0.3c2-0.8,3.1-3.1,2.2-5.2l-1.9-4.9l4.9-1.9c1-0.4,1.8-1.1,2.2-2.1C149.6,64.5,149.6,63.4,149.2,62.4z"/>
	</g>
	<g>
		<g>
			<path class="st22" d="M119.8,86.5l2.5,6.3l-6.3,2.5c-1.3,0.5-1.9,2-1.4,3.2c0.5,1.3,2,1.9,3.2,1.4l6.3-2.5l2.5,6.3
				c0.5,1.3,2,1.9,3.2,1.4c1.3-0.5,1.9-2,1.4-3.2l-2.5-6.3l6.3-2.5c1.3-0.5,1.9-2,1.4-3.2c-0.5-1.3-2-1.9-3.2-1.4l-6.3,2.5l-2.5-6.3
				c-0.5-1.3-2-1.9-3.2-1.4C120,83.7,119.3,85.2,119.8,86.5z"/>
			<path class="st22" d="M131.1,59.6l2.5,6.3l-6.3,2.5c-1.3,0.5-1.9,2-1.4,3.2c0.5,1.3,2,1.9,3.2,1.4l6.3-2.5l2.5,6.3
				c0.5,1.3,2,1.9,3.2,1.4c1.3-0.5,1.9-2,1.4-3.2l-2.5-6.3l6.3-2.5c1.3-0.5,1.9-2,1.4-3.2c-0.5-1.3-2-1.9-3.2-1.4l-6.3,2.5l-2.5-6.3
				c-0.5-1.3-2-1.9-3.2-1.4C131.3,56.9,130.6,58.3,131.1,59.6z"/>
		</g>
	</g>
	<g>
		<path class="st21" d="M147.8,118.1c-0.4-19.6,7.5-38.7,21.5-52.4c3-2.9,7.9-2.9,10.8,0.1c2.9,3,2.9,7.8-0.1,10.8
			c-11,10.8-17.2,25.8-16.9,41.2c0,1-0.2,2.1-0.6,3c-1.2,2.8-3.9,4.7-6.9,4.7C151.4,125.6,147.9,122.3,147.8,118.1z"/>
		<g>
			<path class="st23" d="M160.2,119.8c0.3-0.6,0.4-1.3,0.4-2c-0.3-16.1,6.1-31.8,17.7-43.1c2-2,2.1-5.2,0.1-7.2
				c-2-2-5.2-2.1-7.2-0.1C157.6,80.7,150,99.1,150.4,118c0.1,2.8,2.4,5,5.2,5C157.6,123,159.4,121.7,160.2,119.8z"/>
		</g>
		<path class="st24" d="M159.7,96.1l11.4,15.8c2.5,3.3,1.9,8-1.4,10.5c-3.3,2.5-8,1.9-10.5-1.4l-4.2-5.5L159.7,96.1z"/>
		<path class="st25" d="M156.6,105.1c0.3-0.3,0.5-0.6,0.8-0.9c0-0.1,0.1-0.1,0.1-0.2l9,11.7c0.5,0.6,0.4,1.6-0.3,2.1
			c-0.7,0.5-1.6,0.4-2.1-0.3l-8.7-11.4C155.8,105.8,156.2,105.5,156.6,105.1z"/>
		<path class="st26" d="M155,115.5l2.4,3.2c0-2,0.4-12.5,4.8-19c0,0,0,0,0,0l-2.5-3.5L155,115.5z"/>
		<g>
			<path class="st27" d="M157.2,118.6c0.1-0.2,0.1-0.4,0.1-0.7c-2.1-26,19.1-46.7,19.3-46.9c0.6-0.6,0.6-1.5,0-2.1
				c-0.6-0.6-1.5-0.6-2.1,0c-0.9,0.9-22.4,21.8-20.2,49.3c0.1,0.8,0.8,1.5,1.6,1.4C156.5,119.5,157,119.1,157.2,118.6z"/>
		</g>
	</g>
	<g class="st28">
		<g>
			<path class="st9" d="M158.7,118.2c2,2.6,4.4,5,8,4.4c1.6-0.3,0.9-2.7-0.7-2.4c-2.3,0.4-4-1.6-5.2-3.2
				C159.9,115.7,157.7,116.9,158.7,118.2L158.7,118.2z"/>
		</g>
		<g>
			<path class="st9" d="M169.3,120.7c1.6,0,1.6-2.5,0-2.5C167.7,118.2,167.7,120.7,169.3,120.7L169.3,120.7z"/>
		</g>
		<g>
			<path class="st9" d="M169.9,69.2c-3.6,3.9-6.8,8-9.6,12.5c-0.8,1.4,1.3,2.6,2.2,1.3c2.7-4.3,5.7-8.3,9.2-12
				C172.8,69.8,171,68.1,169.9,69.2L169.9,69.2z"/>
		</g>
		<g>
			<path class="st9" d="M173.2,69.4c1.6,0,1.6-2.5,0-2.5C171.6,66.9,171.6,69.4,173.2,69.4L173.2,69.4z"/>
		</g>
		<g>
			<path class="st9" d="M177.4,74.2c1.6,0,1.6-2.5,0-2.5C175.8,71.7,175.8,74.2,177.4,74.2L177.4,74.2z"/>
		</g>
		<g>
			<path class="st9" d="M133.6,59.6c1.6,0,1.6-2.5,0-2.5C132,57.1,132,59.6,133.6,59.6L133.6,59.6z"/>
		</g>
		<g>
			<path class="st9" d="M133.7,61.6c0.4,1.3,0.9,2.6,1.4,3.9c0.3,0.6,1.2,0.8,1.7,0.4c0.6-0.4,0.7-1.1,0.4-1.7
				c-0.5-1.1-0.9-2.2-1.2-3.3C135.7,59.4,133.3,60.1,133.7,61.6L133.7,61.6z"/>
		</g>
		<g>
			<path class="st9" d="M122.3,86.8c1.6,0,1.6-2.5,0-2.5C120.7,84.3,120.7,86.8,122.3,86.8L122.3,86.8z"/>
		</g>
		<g>
			<path class="st9" d="M122.5,88.8c0.3,0.9,0.6,1.8,0.9,2.7c0.2,0.6,0.9,1.1,1.5,0.9c0.6-0.2,1.1-0.9,0.9-1.5
				c-0.3-0.9-0.6-1.8-0.9-2.7c-0.2-0.6-0.9-1.1-1.5-0.9C122.7,87.4,122.3,88.1,122.5,88.8L122.5,88.8z"/>
		</g>
	</g>
</g>
</svg>
