<?xml version="1.0" encoding="utf-8"?>
<!-- Generator: Adobe Illustrator 24.2.3, SVG Export Plug-In . SVG Version: 6.00 Build 0)  -->
<svg version="1.1" id="Capa_1" xmlns="http://www.w3.org/2000/svg" xmlns:xlink="http://www.w3.org/1999/xlink" x="0px" y="0px"
	 viewBox="0 0 403 807" style="enable-background:new 0 0 403 807;" xml:space="preserve">
<style type="text/css">
	.st0{fill:#FFFFFF;}
	.st1{fill:url(#SVGID_1_);}
	.st2{fill:#5D87FF;filter:url(#Adobe_OpacityMaskFilter);}
	.st3{mask:url(#mask0_217_35_1_);}
	.st4{fill:#FFC0DA;}
	.st5{fill:#5A5E7B;}
	.st6{fill:none;stroke:#EAEFF4;}
	.st7{fill:#F2F6FA;}
	.st8{fill:url(#SVGID_2_);filter:url(#Adobe_OpacityMaskFilter_1_);}
	.st9{mask:url(#mask1_217_35_1_);}
	.st10{fill:none;}
	.st11{font-family:'Outfit-Regular';}
	.st12{font-size:18.0949px;}
	.st13{fill:url(#SVGID_3_);}
	.st14{fill:#2A3547;}
	.st15{font-size:19.9501px;}
	.st16{font-size:15.2374px;}
	.st17{fill:#7C8FAC;}
	.st18{font-size:13.3377px;}
	.st19{font-size:13.1683px;}
	.st20{font-family:'MyriadPro-Regular';}
	.st21{font-size:14.3641px;}
	.st22{font-size:13.5392px;}
	.st23{fill:url(#SVGID_4_);}
	.st24{fill:url(#SVGID_5_);}
	.st25{fill:url(#SVGID_6_);}
	.st26{fill:url(#SVGID_7_);}
	.st27{fill:#E6FFFA;filter:url(#Adobe_OpacityMaskFilter_2_);}
	.st28{mask:url(#mask2_217_35_1_);}
	.st29{fill:#DFE5EF;}
	.st30{fill:url(#SVGID_8_);}
	.st31{fill:url(#SVGID_9_);}
	.st32{fill:url(#SVGID_10_);}
	.st33{fill:url(#SVGID_11_);}
	.st34{fill:url(#SVGID_12_);}
	.st35{fill:url(#SVGID_13_);}
	.st36{fill:url(#SVGID_14_);}
	.st37{fill:url(#SVGID_15_);}
	.st38{fill:url(#SVGID_16_);}
	.st39{fill:#EAEFF4;}
</style>
<g>
	<path shape-rendering="crispEdges" class="st0" d="M31,8h342c5.5,0,10,4.5,10,10v522c0,5.5-4.5,10-10,10H31c-5.5,0-10-4.5-10-10V18
		C21,12.5,25.5,8,31,8z"/>
	<linearGradient id="SVGID_1_" gradientUnits="userSpaceOnUse" x1="51" y1="115" x2="131" y2="115">
		<stop  offset="0" style="stop-color:#EC1B69"/>
		<stop  offset="1" style="stop-color:#F05B57"/>
	</linearGradient>
	<circle class="st1" cx="91" cy="115" r="40"/>
	<defs>
		<filter id="Adobe_OpacityMaskFilter" filterUnits="userSpaceOnUse">
			<feColorMatrix  type="matrix" values="1 0 0 0 0  0 1 0 0 0  0 0 1 0 0  0 0 0 1 0"/>
		</filter>
	</defs>
	<mask maskUnits="userSpaceOnUse" id="mask0_217_35_1_">
		<circle class="st2" cx="91" cy="115" r="40"/>
	</mask>
	<g class="st3">
	</g>
	<path class="st4" d="M91,117c-1.2,0-2.3-0.4-3.3-1c-1-0.7-1.8-1.6-2.2-2.7c-0.5-1.1-0.6-2.3-0.3-3.5c0.2-1.2,0.8-2.2,1.6-3.1
		c0.8-0.8,1.9-1.4,3.1-1.6c1.2-0.2,2.4-0.1,3.5,0.3c1.1,0.5,2,1.2,2.7,2.2c0.7,1,1,2.1,1,3.3c0,1.6-0.6,3.1-1.8,4.2
		C94.1,116.4,92.6,117,91,117z"/>
	<path class="st0" d="M94.7,115.7c-1.1,0.8-2.4,1.3-3.7,1.3c-1.3,0-2.6-0.5-3.7-1.3c-1.7,0.7-3.2,1.8-4.2,3.2c-1.1,1.4-1.8,3.2-2,5
		c0,0.3,0,0.5,0.2,0.7c0.2,0.2,0.4,0.3,0.7,0.4l18,0c0.1,0,0.3,0,0.4-0.1c0.1-0.1,0.2-0.1,0.3-0.2c0.1-0.1,0.2-0.2,0.2-0.4
		c0-0.1,0.1-0.3,0-0.4c-0.2-1.8-0.9-3.5-2-5C97.9,117.5,96.4,116.4,94.7,115.7L94.7,115.7z"/>
	<path class="st5" d="M149.2,145.6c-0.4,0-0.7-0.1-1-0.4c-0.3-0.3-0.4-0.6-0.4-1v-8.5c0-0.4,0.1-0.7,0.4-1c0.3-0.3,0.6-0.4,1-0.4
		h11.5c0.4,0,0.7,0.1,1,0.4c0.3,0.3,0.4,0.6,0.4,1v8.5c0,0.4-0.1,0.7-0.4,1c-0.3,0.3-0.6,0.4-1,0.4H149.2z M155,140.4l-6-3.8v7.7
		c0,0.1,0,0.1,0.1,0.2c0,0,0.1,0.1,0.2,0.1h11.5c0.1,0,0.1,0,0.2-0.1c0,0,0.1-0.1,0.1-0.2v-7.7L155,140.4z M155,139.2l5.9-3.8h-11.8
		L155,139.2z M149,136.6v-1.1v8.8c0,0.1,0,0.1,0.1,0.2c0,0,0.1,0.1,0.2,0.1H149v-0.2V136.6z"/>
	<path class="st6" d="M51,175h275"/>
	<path class="st7" d="M59,195h32c4.4,0,8,3.6,8,8v32c0,4.4-3.6,8-8,8H59c-4.4,0-8-3.6-8-8v-32C51,198.6,54.6,195,59,195z"/>
	<path class="st7" d="M59,263h32c4.4,0,8,3.6,8,8v32c0,4.4-3.6,8-8,8H59c-4.4,0-8-3.6-8-8v-32C51,266.6,54.6,263,59,263z"/>
	<path class="st7" d="M59,331h32c4.4,0,8,3.6,8,8v32c0,4.4-3.6,8-8,8H59c-4.4,0-8-3.6-8-8v-32C51,334.6,54.6,331,59,331z"/>
	<path class="st4" d="M63,399h278c6.6,0,12,5.4,12,12v102c0,6.6-5.4,12-12,12H63c-6.6,0-12-5.4-12-12V411C51,404.4,56.4,399,63,399z
		"/>
	<defs>
		<filter id="Adobe_OpacityMaskFilter_1_" filterUnits="userSpaceOnUse" x="190.7" y="396" width="162.3" height="132">
			<feColorMatrix  type="matrix" values="1 0 0 0 0  0 1 0 0 0  0 0 1 0 0  0 0 0 1 0"/>
		</filter>
	</defs>
	<mask maskUnits="userSpaceOnUse" x="190.7" y="396" width="162.3" height="132" id="mask1_217_35_1_">
		
			<linearGradient id="SVGID_2_" gradientUnits="userSpaceOnUse" x1="93.4066" y1="451.5711" x2="311.8518" y2="240.429" gradientTransform="matrix(1 0 0 -1 0 808)">
			<stop  offset="0" style="stop-color:#70367C"/>
			<stop  offset="1" style="stop-color:#92579E"/>
		</linearGradient>
		<path class="st8" d="M64.3,399H341c6.6,0,12,5.4,12,12v102c0,6.6-5.4,12-12,12H64.3c-6.6,0-12-5.4-12-12V411
			C52.3,404.4,57.6,399,64.3,399z"/>
	</mask>
	<g class="st9">
		<rect x="190.7" y="396" class="st10" width="162.3" height="132"/>
	</g>
	<text transform="matrix(1 0 0 1 77 438.4141)" class="st11 st12">Consumos e Inventario</text>
	<linearGradient id="SVGID_3_" gradientUnits="userSpaceOnUse" x1="75.8091" y1="485.5" x2="148.8091" y2="485.5">
		<stop  offset="0" style="stop-color:#EC1B69"/>
		<stop  offset="1" style="stop-color:#F05B57"/>
	</linearGradient>
	<path class="st13" d="M78.8,470h67c1.7,0,3,1.3,3,3v25c0,1.7-1.3,3-3,3h-67c-1.7,0-3-1.3-3-3v-25C75.8,471.3,77.2,470,78.8,470z"/>
	<text transform="matrix(1 0 0 1 52.2778 60.6665)" class="st14 st11 st15">Perfil de Usuario</text>
	<text transform="matrix(1 0 0 1 146.0688 99.3232)" class="st14 st11 st16">Carlos Martinez</text>
	<text transform="matrix(1 0 0 1 147.0566 116.8462)" class="st17 st11 st18">Recepcionista</text>
	<text transform="matrix(1 0 0 1 169.7886 143.0674)"><tspan x="0" y="0" class="st17 st11 st19">recepci</tspan><tspan x="43.1" y="0" class="st17 st20 st19">on@tudominio.com</tspan></text>
	<text transform="matrix(1 0 0 1 116.232 211.5059)" class="st11 st21">Clientes</text>
	<text transform="matrix(1 0 0 1 116.232 232.6782)" class="st17 st11 st22">Configurar cuenta</text>
	<text transform="matrix(1 0 0 1 116.2316 300)" class="st17 st11 st22">Administrar</text>
	<text transform="matrix(1 0 0 1 116.2316 373)" class="st17 st11 st22">Administrar</text>
	<g>
		<text transform="matrix(1 0 0 1 115.0558 276.785)" class="st11 st21">Habitaciones</text>
	</g>
	<g>
		<text transform="matrix(1 0 0 1 115.0558 346)" class="st11 st21">Reservas</text>
	</g>
	<text transform="matrix(1 0 0 1 93.0006 488.7366)" class="st0 st11 st21">Crear</text>
</g>
<path class="st4" d="M73,357h-7c-0.1,0-0.3,0-0.4-0.1c-0.1-0.1-0.2-0.1-0.3-0.2c-0.1-0.1-0.2-0.2-0.2-0.3c-0.1-0.1-0.1-0.3-0.1-0.4
	v-10c0-0.1,0-0.3,0.1-0.4c0.1-0.1,0.1-0.2,0.2-0.3c0.1-0.1,0.2-0.2,0.3-0.2c0.1,0,0.3-0.1,0.4-0.1h7c0.1,0,0.3,0,0.4,0.1
	c0.1,0.1,0.2,0.1,0.3,0.2c0.1,0.1,0.2,0.2,0.2,0.3c0.1,0.1,0.1,0.3,0.1,0.4v10c0,0.1,0,0.3-0.1,0.4c-0.1,0.1-0.1,0.2-0.2,0.3
	c-0.1,0.1-0.2,0.2-0.3,0.2C73.3,357,73.1,357,73,357z"/>
<linearGradient id="SVGID_4_" gradientUnits="userSpaceOnUse" x1="65" y1="362" x2="74" y2="362">
	<stop  offset="0" style="stop-color:#EC1B69"/>
	<stop  offset="1" style="stop-color:#F05B57"/>
</linearGradient>
<path class="st23" d="M73,365h-7c-0.1,0-0.3,0-0.4-0.1c-0.1-0.1-0.2-0.1-0.3-0.2c-0.1-0.1-0.2-0.2-0.2-0.3c-0.1-0.1-0.1-0.3-0.1-0.4
	v-4c0-0.1,0-0.3,0.1-0.4c0.1-0.1,0.1-0.2,0.2-0.3c0.1-0.1,0.2-0.2,0.3-0.2c0.1,0,0.3-0.1,0.4-0.1h7c0.1,0,0.3,0,0.4,0.1
	c0.1,0.1,0.2,0.1,0.3,0.2c0.1,0.1,0.2,0.2,0.2,0.3c0.1,0.1,0.1,0.3,0.1,0.4v4c0,0.1,0,0.3-0.1,0.4c-0.1,0.1-0.1,0.2-0.2,0.3
	c-0.1,0.1-0.2,0.2-0.3,0.2C73.3,365,73.1,365,73,365z"/>
<path class="st4" d="M84,365h-7c-0.1,0-0.3,0-0.4-0.1c-0.1-0.1-0.2-0.1-0.3-0.2c-0.1-0.1-0.2-0.2-0.2-0.3c-0.1-0.1-0.1-0.3-0.1-0.4
	v-8c0-0.1,0-0.3,0.1-0.4c0.1-0.1,0.1-0.2,0.2-0.3c0.1-0.1,0.2-0.2,0.3-0.2c0.1,0,0.3-0.1,0.4-0.1h7c0.1,0,0.3,0,0.4,0.1
	c0.1,0.1,0.2,0.1,0.3,0.2c0.1,0.1,0.2,0.2,0.2,0.3c0.1,0.1,0.1,0.3,0.1,0.4v8c0,0.1,0,0.3-0.1,0.4c-0.1,0.1-0.1,0.2-0.2,0.3
	c-0.1,0.1-0.2,0.2-0.3,0.2C84.3,365,84.1,365,84,365z"/>
<linearGradient id="SVGID_5_" gradientUnits="userSpaceOnUse" x1="76" y1="349" x2="85" y2="349">
	<stop  offset="0" style="stop-color:#EC1B69"/>
	<stop  offset="1" style="stop-color:#F05B57"/>
</linearGradient>
<path class="st24" d="M84,353h-7c-0.1,0-0.3,0-0.4-0.1c-0.1-0.1-0.2-0.1-0.3-0.2c-0.1-0.1-0.2-0.2-0.2-0.3c-0.1-0.1-0.1-0.3-0.1-0.4
	v-6c0-0.1,0-0.3,0.1-0.4c0.1-0.1,0.1-0.2,0.2-0.3c0.1-0.1,0.2-0.2,0.3-0.2c0.1,0,0.3-0.1,0.4-0.1h7c0.1,0,0.3,0,0.4,0.1
	c0.1,0.1,0.2,0.1,0.3,0.2c0.1,0.1,0.2,0.2,0.2,0.3c0.1,0.1,0.1,0.3,0.1,0.4v6c0,0.1,0,0.3-0.1,0.4c-0.1,0.1-0.1,0.2-0.2,0.3
	c-0.1,0.1-0.2,0.2-0.3,0.2C84.3,353,84.1,353,84,353z"/>
<path class="st4" d="M68.1,279h14c0.6,0,1,0.4,1,1v14c0,0.6-0.4,1-1,1h-14c-0.6,0-1-0.4-1-1v-14C67.1,279.4,67.5,279,68.1,279z"/>
<linearGradient id="SVGID_6_" gradientUnits="userSpaceOnUse" x1="65.0996" y1="287" x2="85.0996" y2="287">
	<stop  offset="0" style="stop-color:#EC1B69"/>
	<stop  offset="1" style="stop-color:#F05B57"/>
</linearGradient>
<path class="st25" d="M85.1,289v-9c0-1.7-1.3-3-3-3h-14c-1.7,0-3,1.3-3,3v14c0,1.7,1.3,3,3,3h14c1.7,0,3-1.3,3-3V289z M68.1,279h14
	c0.6,0,1,0.4,1,1v8h-2.5c-0.7,0-1.3,0.3-1.7,0.9l-1.4,2.1h-4.9l-1.4-2.1c-0.4-0.6-1-0.9-1.7-0.9h-2.4v-8
	C67.1,279.4,67.5,279,68.1,279z"/>
<path class="st4" d="M75,220c-1.2,0-2.3-0.4-3.3-1c-1-0.7-1.8-1.6-2.2-2.7c-0.5-1.1-0.6-2.3-0.3-3.5c0.2-1.2,0.8-2.2,1.6-3.1
	c0.8-0.8,1.9-1.4,3.1-1.6c1.2-0.2,2.4-0.1,3.5,0.3c1.1,0.5,2,1.2,2.7,2.2c0.7,1,1,2.1,1,3.3c0,1.6-0.6,3.1-1.8,4.2
	C78.1,219.4,76.6,220,75,220z"/>
<linearGradient id="SVGID_7_" gradientUnits="userSpaceOnUse" x1="65.0596" y1="223.3565" x2="84.9413" y2="223.3565">
	<stop  offset="0" style="stop-color:#EC1B69"/>
	<stop  offset="1" style="stop-color:#F05B57"/>
</linearGradient>
<path class="st26" d="M78.7,218.7c-1.1,0.8-2.4,1.3-3.7,1.3c-1.3,0-2.6-0.5-3.7-1.3c-1.7,0.7-3.2,1.8-4.2,3.2c-1.1,1.4-1.8,3.2-2,5
	c0,0.3,0,0.5,0.2,0.7c0.2,0.2,0.4,0.3,0.7,0.4l18,0c0.1,0,0.3,0,0.4-0.1c0.1-0.1,0.2-0.1,0.3-0.2c0.1-0.1,0.2-0.2,0.2-0.4
	c0-0.1,0.1-0.3,0-0.4c-0.2-1.8-0.9-3.5-2-5C81.9,220.5,80.4,219.4,78.7,218.7L78.7,218.7z"/>
<g>
	<path class="st0" d="M30,570h342c5.5,0,10,4.5,10,10v185c0,5.5-4.5,10-10,10H30c-5.5,0-10-4.5-10-10V580C20,574.5,24.5,570,30,570z
		"/>
</g>
<defs>
	<filter id="Adobe_OpacityMaskFilter_2_" filterUnits="userSpaceOnUse" x="50" y="601" width="72" height="72">
		<feColorMatrix  type="matrix" values="1 0 0 0 0  0 1 0 0 0  0 0 1 0 0  0 0 0 1 0"/>
	</filter>
</defs>
<mask maskUnits="userSpaceOnUse" x="50" y="601" width="72" height="72" id="mask2_217_35_1_">
	<path class="st27" d="M58,601h56c4.4,0,8,3.6,8,8v56c0,4.4-3.6,8-8,8H58c-4.4,0-8-3.6-8-8v-56C50,604.6,53.6,601,58,601z"/>
</mask>
<g class="st28">
	<rect x="50" y="601" class="st29" width="72" height="72"/>
	<rect x="58" y="605" class="st10" width="57" height="68"/>
</g>
<linearGradient id="SVGID_8_" gradientUnits="userSpaceOnUse" x1="50" y1="734.149" x2="54.7248" y2="734.149">
	<stop  offset="0" style="stop-color:#EC1B69"/>
	<stop  offset="1" style="stop-color:#F05B57"/>
</linearGradient>
<path class="st30" d="M52,725.3h0.7c1.1,0,2,0.9,2,2V741c0,1.1-0.9,2-2,2H52c-1.1,0-2-0.9-2-2v-13.7C50,726.2,50.9,725.3,52,725.3z"
	/>
<linearGradient id="SVGID_9_" gradientUnits="userSpaceOnUse" x1="62.2844" y1="731.0848" x2="67.0092" y2="731.0848">
	<stop  offset="0" style="stop-color:#EC1B69"/>
	<stop  offset="1" style="stop-color:#F05B57"/>
</linearGradient>
<path class="st31" d="M64.3,719.2H65c1.1,0,2,0.9,2,2V741c0,1.1-0.9,2-2,2h-0.7c-1.1,0-2-0.9-2-2v-19.8
	C62.3,720.1,63.2,719.2,64.3,719.2z"/>
<linearGradient id="SVGID_10_" gradientUnits="userSpaceOnUse" x1="74.5688" y1="731.0848" x2="79.2936" y2="731.0848">
	<stop  offset="0" style="stop-color:#EC1B69"/>
	<stop  offset="1" style="stop-color:#F05B57"/>
</linearGradient>
<path class="st32" d="M76.6,719.2h0.7c1.1,0,2,0.9,2,2V741c0,1.1-0.9,2-2,2h-0.7c-1.1,0-2-0.9-2-2v-19.8
	C74.6,720.1,75.5,719.2,76.6,719.2z"/>
<linearGradient id="SVGID_11_" gradientUnits="userSpaceOnUse" x1="86.8533" y1="727" x2="91.5781" y2="727">
	<stop  offset="0" style="stop-color:#EC1B69"/>
	<stop  offset="1" style="stop-color:#F05B57"/>
</linearGradient>
<path class="st33" d="M88.9,711h0.7c1.1,0,2,0.9,2,2v28c0,1.1-0.9,2-2,2h-0.7c-1.1,0-2-0.9-2-2v-28C86.9,711.9,87.7,711,88.9,711z"
	/>
<linearGradient id="SVGID_12_" gradientUnits="userSpaceOnUse" x1="99.1377" y1="728.3613" x2="103.8625" y2="728.3613">
	<stop  offset="0" style="stop-color:#EC1B69"/>
	<stop  offset="1" style="stop-color:#F05B57"/>
</linearGradient>
<path class="st34" d="M101.1,713.7h0.7c1.1,0,2,0.9,2,2V741c0,1.1-0.9,2-2,2h-0.7c-1.1,0-2-0.9-2-2v-25.3
	C99.1,714.6,100,713.7,101.1,713.7z"/>
<linearGradient id="SVGID_13_" gradientUnits="userSpaceOnUse" x1="111.422" y1="731.0848" x2="116.1468" y2="731.0848">
	<stop  offset="0" style="stop-color:#EC1B69"/>
	<stop  offset="1" style="stop-color:#F05B57"/>
</linearGradient>
<path class="st35" d="M113.4,719.2h0.7c1.1,0,2,0.9,2,2V741c0,1.1-0.9,2-2,2h-0.7c-1.1,0-2-0.9-2-2v-19.8
	C111.4,720.1,112.3,719.2,113.4,719.2z"/>
<linearGradient id="SVGID_14_" gradientUnits="userSpaceOnUse" x1="123.707" y1="735.1698" x2="128.4318" y2="735.1698">
	<stop  offset="0" style="stop-color:#EC1B69"/>
	<stop  offset="1" style="stop-color:#F05B57"/>
</linearGradient>
<path class="st36" d="M125.7,727.3h0.7c1.1,0,2,0.9,2,2V741c0,1.1-0.9,2-2,2h-0.7c-1.1,0-2-0.9-2-2v-11.7
	C123.7,728.2,124.6,727.3,125.7,727.3z"/>
<linearGradient id="SVGID_15_" gradientUnits="userSpaceOnUse" x1="135.991" y1="728.3613" x2="140.7158" y2="728.3613">
	<stop  offset="0" style="stop-color:#EC1B69"/>
	<stop  offset="1" style="stop-color:#F05B57"/>
</linearGradient>
<path class="st37" d="M138,713.7h0.7c1.1,0,2,0.9,2,2V741c0,1.1-0.9,2-2,2H138c-1.1,0-2-0.9-2-2v-25.3
	C136,714.6,136.9,713.7,138,713.7z"/>
<linearGradient id="SVGID_16_" gradientUnits="userSpaceOnUse" x1="148.275" y1="734.149" x2="152.9998" y2="734.149">
	<stop  offset="0" style="stop-color:#EC1B69"/>
	<stop  offset="1" style="stop-color:#F05B57"/>
</linearGradient>
<path class="st38" d="M150.3,725.3h0.7c1.1,0,2,0.9,2,2V741c0,1.1-0.9,2-2,2h-0.7c-1.1,0-2-0.9-2-2v-13.7
	C148.3,726.2,149.2,725.3,150.3,725.3z"/>
<path class="st39" d="M294,711h50c4.4,0,8,3.6,8,8v16c0,4.4-3.6,8-8,8h-50c-4.4,0-8-3.6-8-8v-16C286,714.6,289.6,711,294,711z"/>
<path class="st14" d="M299.7,735.1l1.5-5c-0.3-0.6-0.5-1.1-0.6-1.7c-0.1-0.6-0.2-1.2-0.2-1.8c0-1.1,0.2-2.1,0.6-3.1
	c0.4-1,1-1.8,1.7-2.5c0.7-0.7,1.5-1.3,2.5-1.7c1-0.4,2-0.6,3.1-0.6c1.1,0,2.1,0.2,3.1,0.6c1,0.4,1.8,1,2.5,1.7
	c0.7,0.7,1.3,1.5,1.7,2.5c0.4,1,0.6,2,0.6,3.1c0,1.1-0.2,2.1-0.6,3.1c-0.4,1-1,1.8-1.7,2.5c-0.7,0.7-1.5,1.3-2.5,1.7s-2,0.6-3.1,0.6
	c-0.6,0-1.2-0.1-1.8-0.2c-0.6-0.1-1.2-0.4-1.7-0.6L299.7,735.1z M301.5,733.3l2.7-0.8c0.2-0.1,0.4-0.1,0.6-0.1
	c0.2,0,0.4,0.1,0.6,0.2c0.4,0.2,0.9,0.4,1.4,0.5c0.5,0.1,1,0.2,1.5,0.2c1.9,0,3.4-0.6,4.7-1.9c1.3-1.3,1.9-2.9,1.9-4.7
	c0-1.9-0.6-3.4-1.9-4.7c-1.3-1.3-2.9-1.9-4.7-1.9s-3.4,0.6-4.7,1.9c-1.3,1.3-1.9,2.9-1.9,4.7c0,0.5,0.1,1,0.2,1.5
	c0.1,0.5,0.3,1,0.5,1.4c0.1,0.2,0.1,0.4,0.2,0.6c0,0.2,0,0.4-0.1,0.6L301.5,733.3z"/>
<path class="st14" d="M322.7,733v-1.2l2.9-3.1c0.6-0.6,1-1.1,1.3-1.4c0.3-0.4,0.6-0.7,0.7-1c0.1-0.3,0.2-0.6,0.2-0.9
	c0-0.5-0.2-0.9-0.5-1.2c-0.3-0.3-0.7-0.4-1.2-0.4c-0.5,0-0.9,0.1-1.3,0.4c-0.4,0.3-0.6,0.7-0.8,1.2l-1.5-0.4c0.1-0.6,0.3-1,0.7-1.4
	c0.3-0.4,0.7-0.7,1.2-1c0.5-0.2,1-0.3,1.6-0.3c0.7,0,1.2,0.1,1.7,0.4c0.5,0.2,0.9,0.6,1.1,1c0.3,0.4,0.4,0.9,0.4,1.5
	c0,0.4-0.1,0.8-0.2,1.1c-0.1,0.4-0.4,0.7-0.7,1.1c-0.3,0.4-0.7,0.8-1.1,1.3l-2.5,2.7h4.7v1.4H322.7z M335.6,733v-2.4h-5v-1.4
	l4.9-6.7h1.6v6.7h1.4v1.4h-1.4v2.4H335.6z M331.9,729.9l-0.3-0.6h4v-5.4l0.4,0.1L331.9,729.9z"/>
<text transform="matrix(1 0 0 1 140.7158 648.2993)"><tspan x="0" y="0" class="st11 st21">Caja y Facturaci</tspan><tspan x="104.1" y="0" class="st20 st21">ón</tspan></text>
<text transform="matrix(1 0 0 1 141.0686 665.4074)" class="st17 st11 st22">20 marz 2024</text>
</svg>
