<?xml version="1.0" encoding="utf-8"?>
<!-- Generator: Adobe Illustrator 24.2.3, SVG Export Plug-In . SVG Version: 6.00 Build 0)  -->
<svg version="1.1" id="Capa_1" xmlns="http://www.w3.org/2000/svg" xmlns:xlink="http://www.w3.org/1999/xlink" x="0px" y="0px"
	 viewBox="0 0 403 810" style="enable-background:new 0 0 403 810;" xml:space="preserve">
<style type="text/css">
	.st0{fill:#FFFFFF;}
	.st1{fill:#E6FFFA;}
	.st2{fill:#13DEB9;}
	.st3{fill:#7C8FAC;}
	.st4{fill:#DCDCDC;filter:url(#Adobe_OpacityMaskFilter);}
	.st5{mask:url(#mask0_1911_11162_1_);}
	.st6{fill:url(#SVGID_1_);stroke:url(#SVGID_2_);stroke-miterlimit:10;}
	.st7{fill:#2A3547;}
	.st8{fill:#ECF2FF;}
	.st9{opacity:0.19;fill:url(#SVGID_3_);}
	.st10{fill:url(#SVGID_4_);}
	.st11{fill:url(#SVGID_5_);}
	.st12{fill:url(#SVGID_6_);}
	.st13{fill:url(#SVGID_7_);}
	.st14{fill:url(#SVGID_8_);}
	.st15{fill:url(#SVGID_9_);}
	.st16{fill:url(#SVGID_10_);}
	.st17{fill:url(#SVGID_11_);}
	.st18{fill:url(#SVGID_12_);}
	.st19{fill:url(#SVGID_13_);}
	.st20{fill:#1E3146;}
	.st21{fill:url(#SVGID_14_);}
	.st22{fill:#F9F9FD;}
	.st23{fill:#EDEAFF;}
	.st24{fill:url(#SVGID_15_);}
	.st25{fill:url(#SVGID_16_);}
	.st26{fill:url(#SVGID_17_);}
	.st27{fill:#FFFFFF;fill-opacity:0.1;}
	.st28{fill:#FFFFFF;fill-opacity:0.2;}
	.st29{fill:#5D87FF;}
	.st30{font-family:'Outfit-Regular';}
	.st31{font-size:14.0345px;}
	.st32{font-family:'MyriadPro-Regular';}
	.st33{fill:#EA001B;}
	.st34{fill:#F69D1B;}
	.st35{fill:#FE5A00;}
	.st36{fill:#040404;}
	.st37{fill:#050505;}
	.st38{fill:#060606;}
	.st39{fill:#090909;}
	.st40{font-size:16.3461px;}
	.st41{font-size:18.0843px;}
	.st42{font-size:13.511px;}
	.st43{font-size:26.6641px;}
	.st44{font-size:12px;}
</style>
<g>
	<path class="st0" d="M31,342h342c5.5,0,10,4.5,10,10v188c0,5.5-4.5,10-10,10H31c-5.5,0-10-4.5-10-10V352C21,346.5,25.5,342,31,342z
		"/>
</g>
<path class="st1" d="M146,417L146,417c5.5,0,10,4.5,10,10l0,0c0,5.5-4.5,10-10,10l0,0c-5.5,0-10-4.5-10-10l0,0
	C136,421.5,140.5,417,146,417z"/>
<path class="st2" d="M149.1,430.8l0.7-0.7l-6.6-6.6h6v-1h-7.7v7.7h1v-6L149.1,430.8z"/>
<path class="st3" d="M163.7,433v-3h-3V429h3v-3h1.1v3h3v1.1h-3v3H163.7z M170.2,433l3.6-4.7l0.2-0.1c-0.1,0.2-0.3,0.4-0.5,0.5
	c-0.2,0.1-0.4,0.2-0.6,0.3s-0.5,0.1-0.7,0.1c-0.6,0-1.2-0.1-1.6-0.4c-0.5-0.3-0.9-0.7-1.2-1.2c-0.3-0.5-0.4-1.1-0.4-1.7
	c0-0.6,0.1-1.2,0.4-1.7c0.3-0.5,0.7-0.9,1.2-1.2c0.5-0.3,1.1-0.4,1.7-0.4c0.7,0,1.2,0.1,1.7,0.4c0.5,0.3,0.9,0.7,1.2,1.2
	c0.3,0.5,0.4,1.1,0.4,1.8c0,0.4,0,0.7-0.1,1.1c-0.1,0.4-0.2,0.7-0.4,1.1c-0.2,0.4-0.4,0.7-0.7,1.1l-2.9,3.9H170.2z M172.4,428
	c0.4,0,0.8-0.1,1.2-0.3c0.3-0.2,0.6-0.5,0.8-0.8c0.2-0.4,0.3-0.8,0.3-1.2c0-0.4-0.1-0.8-0.3-1.2c-0.2-0.4-0.5-0.6-0.8-0.8
	c-0.3-0.2-0.7-0.3-1.1-0.3c-0.4,0-0.8,0.1-1.1,0.3c-0.3,0.2-0.6,0.5-0.8,0.8c-0.2,0.3-0.3,0.7-0.3,1.2c0,0.4,0.1,0.8,0.3,1.2
	c0.2,0.3,0.5,0.6,0.8,0.8C171.6,427.9,171.9,428,172.4,428z M178.2,433l8.5-10.4h1.4l-8.5,10.4H178.2z M179.7,427.9
	c-0.5,0-1-0.1-1.4-0.4c-0.4-0.3-0.7-0.6-1-1c-0.2-0.4-0.4-0.9-0.4-1.4s0.1-1,0.4-1.4c0.3-0.4,0.6-0.8,1-1c0.4-0.2,0.9-0.4,1.4-0.4
	s1,0.1,1.4,0.4c0.4,0.2,0.7,0.6,1,1c0.2,0.4,0.4,0.9,0.4,1.4s-0.1,1-0.4,1.4c-0.2,0.4-0.6,0.7-1,1
	C180.7,427.7,180.2,427.9,179.7,427.9z M179.7,426.9c0.3,0,0.6-0.1,0.9-0.2c0.3-0.2,0.4-0.4,0.6-0.6c0.1-0.3,0.2-0.6,0.2-0.8
	c0-0.3-0.1-0.6-0.2-0.8c-0.1-0.3-0.3-0.5-0.6-0.6c-0.2-0.2-0.5-0.3-0.9-0.3c-0.3,0-0.6,0.1-0.9,0.3c-0.3,0.2-0.5,0.4-0.6,0.6
	c-0.1,0.3-0.2,0.5-0.2,0.8c0,0.3,0.1,0.6,0.2,0.8c0.1,0.3,0.3,0.5,0.6,0.6C179.1,426.8,179.4,426.9,179.7,426.9z M186.5,433.2
	c-0.5,0-1-0.1-1.4-0.4c-0.4-0.3-0.7-0.6-1-1c-0.2-0.4-0.4-0.9-0.4-1.4s0.1-1,0.4-1.4c0.3-0.4,0.6-0.8,1-1c0.4-0.2,0.9-0.4,1.4-0.4
	c0.5,0,1,0.1,1.4,0.4c0.4,0.2,0.7,0.6,1,1c0.2,0.4,0.4,0.9,0.4,1.4s-0.1,1-0.4,1.4c-0.2,0.4-0.6,0.7-1,1
	C187.4,433,187,433.2,186.5,433.2z M186.5,432.2c0.3,0,0.6-0.1,0.9-0.2c0.3-0.2,0.4-0.4,0.6-0.6c0.1-0.3,0.2-0.6,0.2-0.8
	c0-0.3-0.1-0.6-0.2-0.8c-0.1-0.3-0.3-0.5-0.6-0.6c-0.2-0.2-0.5-0.3-0.9-0.3c-0.3,0-0.6,0.1-0.9,0.3c-0.3,0.2-0.5,0.4-0.6,0.6
	c-0.1,0.3-0.2,0.5-0.2,0.8c0,0.3,0.1,0.6,0.2,0.8c0.1,0.3,0.3,0.5,0.6,0.6C185.9,432.1,186.1,432.2,186.5,432.2z"/>
<defs>
	<filter id="Adobe_OpacityMaskFilter" filterUnits="userSpaceOnUse" x="47.7" y="465.7" width="305.2" height="62.9">
		<feColorMatrix  type="matrix" values="1 0 0 0 0  0 1 0 0 0  0 0 1 0 0  0 0 0 1 0"/>
	</filter>
</defs>
<mask maskUnits="userSpaceOnUse" x="47.7" y="465.7" width="305.2" height="62.9" id="mask0_1911_11162_1_">
	<path class="st4" d="M51,452h298v73H51V452z"/>
</mask>
<g class="st5">
	<linearGradient id="SVGID_1_" gradientUnits="userSpaceOnUse" x1="352.334" y1="497.0875" x2="48.167" y2="497.0875">
		<stop  offset="0" style="stop-color:#EC1B69;stop-opacity:0.1"/>
		<stop  offset="1" style="stop-color:#F05B57;stop-opacity:0"/>
	</linearGradient>
	<linearGradient id="SVGID_2_" gradientUnits="userSpaceOnUse" x1="47.667" y1="497.0875" x2="352.834" y2="497.0875">
		<stop  offset="0" style="stop-color:#EC1B69"/>
		<stop  offset="1" style="stop-color:#F05B57"/>
	</linearGradient>
	<path class="st6" d="M84.3,479.8c-4,35-26.4,17.7-36.1,20.5V528h304.2v-38.5c-10.6,1.4-22.6-8.6-27.3-13.8
		c-17.6-19.4-41.4-4.6-51.1,5.2c-34.2,33.5-61.8,14-71.3,0c-10.6-15.6-22.2-6.5-25.5-0.9c-4.9,9-16.4,16.1-21.6,18.6
		c-39.4,18-55.2-4.3-58.1-24.4C93.5,459.9,84.7,466.8,84.3,479.8z"/>
</g>
<path class="st7" d="M58.1,435.3c-1,0-1.9-0.2-2.7-0.5c-0.8-0.4-1.6-0.9-2.1-1.5c-0.6-0.6-1-1.4-1.3-2.2l2.1-0.9
	c0.4,1,0.9,1.7,1.7,2.2c0.7,0.5,1.6,0.8,2.5,0.8c0.6,0,1-0.1,1.5-0.3c0.4-0.2,0.7-0.4,1-0.8c0.2-0.3,0.4-0.7,0.4-1.1
	c0-0.6-0.2-1-0.5-1.4s-0.8-0.6-1.4-0.8l-2.9-0.9c-1.2-0.4-2.1-0.9-2.7-1.7c-0.6-0.8-0.9-1.6-0.9-2.6c0-0.9,0.2-1.7,0.7-2.3
	c0.4-0.7,1-1.2,1.8-1.6c0.8-0.4,1.6-0.6,2.6-0.6c0.9,0,1.8,0.2,2.6,0.5c0.8,0.3,1.4,0.8,2,1.3c0.6,0.6,1,1.2,1.2,2l-2.1,0.9
	c-0.3-0.8-0.8-1.5-1.4-1.9c-0.6-0.4-1.4-0.7-2.2-0.7c-0.5,0-1,0.1-1.4,0.3c-0.4,0.2-0.7,0.4-0.9,0.8c-0.2,0.3-0.3,0.7-0.3,1.1
	c0,0.5,0.2,1,0.5,1.3s0.8,0.7,1.5,0.9l2.7,0.9c1.2,0.4,2.2,0.9,2.8,1.6c0.6,0.7,0.9,1.6,0.9,2.6c0,0.9-0.2,1.6-0.7,2.3
	c-0.4,0.7-1.1,1.2-1.9,1.6C60.1,435.1,59.1,435.3,58.1,435.3z M57.1,437.1v-19.8h1.7v19.8H57.1z M70.9,435.3c-1,0-1.9-0.2-2.7-0.7
	c-0.8-0.4-1.4-1.1-1.9-1.8c-0.4-0.8-0.7-1.7-0.7-2.7c0-0.5,0.1-1,0.2-1.6c0.1-0.5,0.3-1.1,0.6-1.6c0.3-0.6,0.7-1.2,1.2-1.8l4.4-5.7
	h3l-5.4,6.9l-0.4-0.3c0.2-0.2,0.4-0.4,0.6-0.5c0.2-0.1,0.5-0.2,0.7-0.3c0.3-0.1,0.5-0.1,0.8-0.1c0.9,0,1.8,0.2,2.5,0.7
	c0.7,0.4,1.3,1,1.7,1.8c0.4,0.7,0.7,1.6,0.7,2.6c0,1-0.2,1.9-0.7,2.6c-0.5,0.8-1.1,1.4-1.9,1.8C72.9,435,72,435.3,70.9,435.3z
	 M70.9,433c0.5,0,1-0.1,1.4-0.4c0.4-0.3,0.8-0.6,1-1c0.3-0.4,0.4-1,0.4-1.5c0-0.6-0.1-1.1-0.4-1.5c-0.2-0.4-0.6-0.8-1-1
	c-0.4-0.3-0.9-0.4-1.4-0.4c-0.5,0-1,0.1-1.4,0.4c-0.4,0.2-0.8,0.6-1,1s-0.4,0.9-0.4,1.5c0,0.6,0.1,1.1,0.4,1.5c0.3,0.4,0.6,0.8,1,1
	C69.9,432.9,70.4,433,70.9,433z M79.2,438.1v-1.2c0.5-0.1,0.8-0.3,1.1-0.7c0.3-0.3,0.4-0.7,0.5-1.3h-1.1v-2.7H82v1.8
	c0,1.1-0.2,2-0.7,2.7C80.8,437.5,80.1,437.9,79.2,438.1z M90.7,435.3c-1.1,0-2.1-0.2-2.9-0.6c-0.8-0.4-1.4-1-1.9-1.7
	c-0.4-0.7-0.7-1.5-0.7-2.4c0-1,0.3-1.9,0.8-2.6c0.6-0.7,1.3-1.3,2.4-1.6l-0.1,0.6c-0.7-0.3-1.3-0.7-1.8-1.4
	c-0.4-0.7-0.6-1.4-0.6-2.2c0-0.8,0.2-1.5,0.6-2.1c0.4-0.6,1-1.1,1.7-1.5c0.7-0.4,1.5-0.5,2.5-0.5c0.9,0,1.7,0.2,2.5,0.5
	c0.7,0.4,1.3,0.8,1.7,1.5c0.4,0.6,0.6,1.4,0.6,2.2c0,0.8-0.2,1.6-0.7,2.2c-0.4,0.6-1,1.1-1.7,1.4l-0.1-0.6c1,0.4,1.8,0.9,2.4,1.6
	c0.6,0.7,0.8,1.6,0.8,2.6c0,0.9-0.2,1.7-0.7,2.4c-0.4,0.7-1.1,1.3-1.9,1.7C92.8,435,91.8,435.3,90.7,435.3z M90.7,433.2
	c0.6,0,1.1-0.1,1.6-0.3c0.4-0.2,0.8-0.6,1.1-1s0.4-0.9,0.4-1.4s-0.1-1-0.4-1.4c-0.3-0.4-0.6-0.7-1.1-0.9c-0.4-0.2-1-0.3-1.6-0.3
	c-0.6,0-1.1,0.1-1.6,0.3s-0.8,0.5-1,0.9c-0.3,0.4-0.4,0.9-0.4,1.4s0.1,1,0.4,1.4c0.3,0.4,0.6,0.7,1,1
	C89.6,433,90.1,433.2,90.7,433.2z M90.7,425.6c0.4,0,0.8-0.1,1.2-0.3c0.3-0.2,0.6-0.5,0.8-0.8s0.3-0.7,0.3-1.1
	c0-0.4-0.1-0.8-0.3-1.1c-0.2-0.3-0.5-0.6-0.8-0.8c-0.3-0.2-0.7-0.3-1.2-0.3c-0.4,0-0.8,0.1-1.2,0.3c-0.3,0.2-0.6,0.4-0.8,0.8
	c-0.2,0.3-0.3,0.7-0.3,1.1c0,0.4,0.1,0.8,0.3,1.1c0.2,0.3,0.5,0.6,0.8,0.8C89.9,425.5,90.3,425.6,90.7,425.6z M98.4,435v-1.8
	l4.3-4.6c0.8-0.9,1.5-1.6,2-2.2c0.5-0.6,0.8-1,1.1-1.5c0.2-0.4,0.3-0.9,0.3-1.3c0-0.8-0.2-1.3-0.7-1.7c-0.5-0.4-1.1-0.6-1.8-0.6
	c-0.8,0-1.4,0.2-2,0.7c-0.5,0.4-0.9,1-1.1,1.8l-2.2-0.6c0.2-0.8,0.5-1.5,1-2.1c0.5-0.6,1.1-1.1,1.8-1.4c0.7-0.3,1.5-0.5,2.4-0.5
	c1,0,1.9,0.2,2.6,0.6c0.7,0.4,1.3,0.9,1.7,1.5c0.4,0.7,0.6,1.4,0.6,2.3c0,0.6-0.1,1.1-0.3,1.7c-0.2,0.5-0.5,1.1-1,1.7
	c-0.4,0.6-1,1.3-1.7,2l-3.8,4h7.1v2.1H98.4z M117.4,435.3c-1.2,0-2.3-0.3-3.3-1c-0.9-0.7-1.7-1.6-2.2-2.8c-0.5-1.2-0.8-2.6-0.8-4.2
	c0-1.6,0.3-3,0.8-4.2c0.5-1.2,1.3-2.1,2.2-2.8c0.9-0.7,2-1,3.3-1s2.3,0.3,3.3,1c0.9,0.7,1.7,1.6,2.2,2.8c0.5,1.2,0.8,2.6,0.8,4.2
	c0,1.6-0.3,3-0.8,4.2c-0.5,1.2-1.2,2.1-2.2,2.8C119.8,434.9,118.7,435.3,117.4,435.3z M117.4,433c0.8,0,1.4-0.2,2-0.7
	c0.6-0.5,1-1.1,1.3-2s0.5-1.9,0.5-3.1s-0.2-2.2-0.5-3.1c-0.3-0.9-0.7-1.5-1.3-2c-0.6-0.5-1.2-0.7-2-0.7c-0.8,0-1.4,0.2-2,0.7
	c-0.6,0.5-1,1.1-1.3,2c-0.3,0.9-0.5,1.9-0.5,3.1c0,1.2,0.2,2.2,0.5,3.1c0.3,0.9,0.7,1.5,1.3,2C116,432.7,116.7,433,117.4,433z"/>
<path class="st8" d="M320,373.5h24c4.4,0,8,3.6,8,8v24c0,4.4-3.6,8-8,8h-24c-4.4,0-8-3.6-8-8v-24C312,377.1,315.6,373.5,320,373.5z"
	/>
<linearGradient id="SVGID_3_" gradientUnits="userSpaceOnUse" x1="328.5441" y1="393.4992" x2="342" y2="393.4992">
	<stop  offset="0" style="stop-color:#EC1B69"/>
	<stop  offset="1" style="stop-color:#F05B57"/>
</linearGradient>
<path class="st9" d="M335.3,400.2c-1.3,0-2.6-0.4-3.7-1.1c-1.1-0.7-2-1.8-2.5-3c-0.5-1.2-0.6-2.6-0.4-3.9c0.3-1.3,0.9-2.5,1.8-3.4
	c0.9-0.9,2.1-1.6,3.4-1.8s2.7-0.1,3.9,0.4c1.2,0.5,2.3,1.4,3,2.5c0.7,1.1,1.1,2.4,1.1,3.7v0c0,1.8-0.7,3.5-2,4.8
	C338.8,399.5,337.1,400.2,335.3,400.2z"/>
<linearGradient id="SVGID_4_" gradientUnits="userSpaceOnUse" x1="321.9991" y1="393.4992" x2="335.455" y2="393.4992">
	<stop  offset="0" style="stop-color:#EC1B69"/>
	<stop  offset="1" style="stop-color:#F05B57"/>
</linearGradient>
<path class="st10" d="M328.7,400.2c-1.3,0-2.6-0.4-3.7-1.1c-1.1-0.7-2-1.8-2.5-3c-0.5-1.2-0.6-2.6-0.4-3.9c0.3-1.3,0.9-2.5,1.8-3.4
	s2.1-1.6,3.4-1.8c1.3-0.3,2.7-0.1,3.9,0.4c1.2,0.5,2.3,1.4,3,2.5c0.7,1.1,1.1,2.4,1.1,3.7c0,1.8-0.7,3.5-2,4.8
	C332.2,399.5,330.5,400.2,328.7,400.2z"/>
<g>
	<path class="st0" d="M33,8h152c6.6,0,12,5.4,12,12v129c0,6.6-5.4,12-12,12H33c-6.6,0-12-5.4-12-12V20C21,13.4,26.4,8,33,8z"/>
</g>
<linearGradient id="SVGID_5_" gradientUnits="userSpaceOnUse" x1="52" y1="126" x2="57" y2="126">
	<stop  offset="0" style="stop-color:#EC1B69"/>
	<stop  offset="1" style="stop-color:#F05B57"/>
</linearGradient>
<path class="st11" d="M54,113h1c1.1,0,2,0.9,2,2v22c0,1.1-0.9,2-2,2h-1c-1.1,0-2-0.9-2-2v-22C52,113.9,52.9,113,54,113z"/>
<linearGradient id="SVGID_6_" gradientUnits="userSpaceOnUse" x1="65" y1="121.5" x2="70" y2="121.5">
	<stop  offset="0" style="stop-color:#EC1B69"/>
	<stop  offset="1" style="stop-color:#F05B57"/>
</linearGradient>
<path class="st12" d="M67,104h1c1.1,0,2,0.9,2,2v31c0,1.1-0.9,2-2,2h-1c-1.1,0-2-0.9-2-2v-31C65,104.9,65.9,104,67,104z"/>
<linearGradient id="SVGID_7_" gradientUnits="userSpaceOnUse" x1="78" y1="121.5" x2="83" y2="121.5">
	<stop  offset="0" style="stop-color:#EC1B69"/>
	<stop  offset="1" style="stop-color:#F05B57"/>
</linearGradient>
<path class="st13" d="M80,104h1c1.1,0,2,0.9,2,2v31c0,1.1-0.9,2-2,2h-1c-1.1,0-2-0.9-2-2v-31C78,104.9,78.9,104,80,104z"/>
<linearGradient id="SVGID_8_" gradientUnits="userSpaceOnUse" x1="91" y1="115.5" x2="96" y2="115.5">
	<stop  offset="0" style="stop-color:#EC1B69"/>
	<stop  offset="1" style="stop-color:#F05B57"/>
</linearGradient>
<path class="st14" d="M93,92h1c1.1,0,2,0.9,2,2v43c0,1.1-0.9,2-2,2h-1c-1.1,0-2-0.9-2-2V94C91,92.9,91.9,92,93,92z"/>
<linearGradient id="SVGID_9_" gradientUnits="userSpaceOnUse" x1="104" y1="117.5" x2="109" y2="117.5">
	<stop  offset="0" style="stop-color:#EC1B69"/>
	<stop  offset="1" style="stop-color:#F05B57"/>
</linearGradient>
<path class="st15" d="M106,96h1c1.1,0,2,0.9,2,2v39c0,1.1-0.9,2-2,2h-1c-1.1,0-2-0.9-2-2V98C104,96.9,104.9,96,106,96z"/>
<linearGradient id="SVGID_10_" gradientUnits="userSpaceOnUse" x1="117" y1="121.5" x2="122" y2="121.5">
	<stop  offset="0" style="stop-color:#EC1B69"/>
	<stop  offset="1" style="stop-color:#F05B57"/>
</linearGradient>
<path class="st16" d="M119,104h1c1.1,0,2,0.9,2,2v31c0,1.1-0.9,2-2,2h-1c-1.1,0-2-0.9-2-2v-31C117,104.9,117.9,104,119,104z"/>
<linearGradient id="SVGID_11_" gradientUnits="userSpaceOnUse" x1="130" y1="127.5" x2="135" y2="127.5">
	<stop  offset="0" style="stop-color:#EC1B69"/>
	<stop  offset="1" style="stop-color:#F05B57"/>
</linearGradient>
<path class="st17" d="M132,116h1c1.1,0,2,0.9,2,2v19c0,1.1-0.9,2-2,2h-1c-1.1,0-2-0.9-2-2v-19C130,116.9,130.9,116,132,116z"/>
<linearGradient id="SVGID_12_" gradientUnits="userSpaceOnUse" x1="143" y1="117.5" x2="148" y2="117.5">
	<stop  offset="0" style="stop-color:#EC1B69"/>
	<stop  offset="1" style="stop-color:#F05B57"/>
</linearGradient>
<path class="st18" d="M145,96h1c1.1,0,2,0.9,2,2v39c0,1.1-0.9,2-2,2h-1c-1.1,0-2-0.9-2-2V98C143,96.9,143.9,96,145,96z"/>
<linearGradient id="SVGID_13_" gradientUnits="userSpaceOnUse" x1="156" y1="126" x2="161" y2="126">
	<stop  offset="0" style="stop-color:#EC1B69"/>
	<stop  offset="1" style="stop-color:#F05B57"/>
</linearGradient>
<path class="st19" d="M158,113h1c1.1,0,2,0.9,2,2v22c0,1.1-0.9,2-2,2h-1c-1.1,0-2-0.9-2-2v-22C156,113.9,156.9,113,158,113z"/>
<path class="st7" d="M53.1,73.3c-1,0-1.9-0.2-2.7-0.5c-0.8-0.4-1.6-0.9-2.1-1.5c-0.6-0.6-1-1.4-1.3-2.2l2.1-0.9
	c0.4,1,0.9,1.7,1.7,2.2c0.7,0.5,1.6,0.8,2.5,0.8c0.6,0,1-0.1,1.5-0.3c0.4-0.2,0.7-0.4,1-0.8c0.2-0.3,0.4-0.7,0.4-1.1
	c0-0.6-0.2-1-0.5-1.4s-0.8-0.6-1.4-0.8l-2.9-0.9c-1.2-0.4-2.1-0.9-2.7-1.7c-0.6-0.8-0.9-1.6-0.9-2.6c0-0.9,0.2-1.7,0.7-2.3
	c0.4-0.7,1-1.2,1.8-1.6c0.8-0.4,1.6-0.6,2.6-0.6c0.9,0,1.8,0.2,2.6,0.5c0.8,0.3,1.4,0.8,2,1.3c0.6,0.6,1,1.2,1.2,2l-2.1,0.9
	c-0.3-0.8-0.8-1.5-1.4-1.9c-0.6-0.4-1.4-0.7-2.2-0.7c-0.5,0-1,0.1-1.4,0.3c-0.4,0.2-0.7,0.4-0.9,0.8C50.1,60.6,50,61,50,61.4
	c0,0.5,0.2,1,0.5,1.3c0.3,0.4,0.8,0.7,1.5,0.9l2.7,0.9c1.2,0.4,2.2,0.9,2.8,1.6c0.6,0.7,0.9,1.6,0.9,2.6c0,0.9-0.2,1.6-0.7,2.3
	c-0.4,0.7-1.1,1.2-1.9,1.6C55.1,73.1,54.1,73.3,53.1,73.3z M52.1,75.1V55.3h1.7v19.8H52.1z M65.9,73.3c-1,0-1.9-0.2-2.7-0.7
	c-0.8-0.4-1.4-1.1-1.9-1.8c-0.4-0.8-0.7-1.7-0.7-2.7c0-0.5,0.1-1,0.2-1.6c0.1-0.5,0.3-1.1,0.6-1.6c0.3-0.6,0.7-1.2,1.2-1.8l4.4-5.7
	h3l-5.4,6.9L64.1,64c0.2-0.2,0.4-0.4,0.6-0.5c0.2-0.1,0.5-0.2,0.7-0.3c0.3-0.1,0.5-0.1,0.8-0.1c0.9,0,1.8,0.2,2.5,0.7s1.3,1,1.7,1.8
	c0.4,0.7,0.7,1.6,0.7,2.6c0,1-0.2,1.9-0.7,2.6c-0.5,0.8-1.1,1.4-1.9,1.8C67.9,73,67,73.3,65.9,73.3z M65.9,71c0.5,0,1-0.1,1.4-0.4
	s0.8-0.6,1-1c0.3-0.4,0.4-1,0.4-1.5c0-0.6-0.1-1.1-0.4-1.5c-0.2-0.4-0.6-0.8-1-1c-0.4-0.3-0.9-0.4-1.4-0.4c-0.5,0-1,0.1-1.4,0.4
	c-0.4,0.2-0.8,0.6-1,1c-0.3,0.4-0.4,0.9-0.4,1.5c0,0.6,0.1,1.1,0.4,1.5c0.3,0.4,0.6,0.8,1,1C64.9,70.9,65.4,71,65.9,71z M73.8,73
	l6.7-13.5h-7.5v-2.1H83v2.1L76.5,73H73.8z M90.5,73.3c-1.1,0-2.1-0.2-2.9-0.6c-0.8-0.4-1.4-1-1.9-1.7c-0.4-0.7-0.7-1.5-0.7-2.4
	c0-1,0.3-1.9,0.8-2.6c0.6-0.7,1.3-1.3,2.4-1.6l-0.1,0.6c-0.7-0.3-1.3-0.7-1.8-1.4c-0.4-0.7-0.6-1.4-0.6-2.2s0.2-1.5,0.6-2.1
	c0.4-0.6,1-1.1,1.7-1.5c0.7-0.4,1.5-0.5,2.5-0.5c0.9,0,1.7,0.2,2.5,0.5c0.7,0.4,1.3,0.8,1.7,1.5c0.4,0.6,0.6,1.4,0.6,2.2
	c0,0.8-0.2,1.6-0.7,2.2c-0.4,0.6-1,1.1-1.7,1.4l-0.1-0.6c1,0.3,1.8,0.9,2.4,1.6c0.6,0.7,0.8,1.6,0.8,2.6c0,0.9-0.2,1.7-0.7,2.4
	c-0.4,0.7-1.1,1.3-1.9,1.7C92.5,73,91.5,73.3,90.5,73.3z M90.5,71.2c0.6,0,1.1-0.1,1.6-0.3c0.4-0.2,0.8-0.6,1-1
	c0.3-0.4,0.4-0.9,0.4-1.4c0-0.5-0.1-1-0.4-1.4c-0.3-0.4-0.6-0.7-1-0.9c-0.4-0.2-1-0.3-1.6-0.3c-0.6,0-1.1,0.1-1.6,0.3
	c-0.4,0.2-0.8,0.5-1.1,0.9c-0.3,0.4-0.4,0.9-0.4,1.4c0,0.5,0.1,1,0.4,1.4s0.6,0.7,1.1,1C89.3,71,89.9,71.2,90.5,71.2z M90.5,63.6
	c0.4,0,0.8-0.1,1.2-0.3c0.3-0.2,0.6-0.5,0.8-0.8s0.3-0.7,0.3-1.1c0-0.4-0.1-0.8-0.3-1.1c-0.2-0.3-0.5-0.6-0.8-0.8
	c-0.3-0.2-0.7-0.3-1.2-0.3c-0.4,0-0.8,0.1-1.2,0.3c-0.3,0.2-0.6,0.4-0.8,0.8c-0.2,0.3-0.3,0.7-0.3,1.1c0,0.4,0.1,0.8,0.3,1.1
	s0.5,0.6,0.8,0.8C89.6,63.5,90,63.6,90.5,63.6z M99.1,76.1v-1.2c0.5-0.1,0.8-0.3,1.1-0.7c0.3-0.3,0.4-0.7,0.5-1.3h-1.1v-2.7h2.4v1.8
	c0,1.1-0.2,2-0.7,2.7C100.7,75.4,100,75.9,99.1,76.1z M105,73v-1.8l4.3-4.6c0.8-0.9,1.5-1.6,2-2.2c0.5-0.6,0.8-1,1.1-1.5
	c0.2-0.4,0.3-0.9,0.3-1.3c0-0.8-0.2-1.3-0.7-1.7c-0.5-0.4-1.1-0.6-1.8-0.6c-0.8,0-1.4,0.2-2,0.7c-0.5,0.4-0.9,1-1.1,1.8l-2.2-0.6
	c0.2-0.8,0.5-1.5,1-2.1c0.5-0.6,1.1-1.1,1.8-1.4c0.7-0.3,1.5-0.5,2.4-0.5c1,0,1.9,0.2,2.6,0.6c0.7,0.4,1.3,0.9,1.7,1.5
	c0.4,0.7,0.6,1.4,0.6,2.3c0,0.6-0.1,1.1-0.3,1.7c-0.2,0.5-0.5,1.1-1,1.7c-0.4,0.6-1,1.3-1.7,2l-3.8,4h7.1V73H105z M118.9,73l5.4-6.9
	l0.4,0.3c-0.2,0.2-0.4,0.4-0.7,0.5c-0.2,0.1-0.5,0.2-0.7,0.3c-0.3,0.1-0.5,0.1-0.8,0.1c-0.9,0-1.8-0.2-2.5-0.6
	c-0.7-0.4-1.3-1-1.8-1.8c-0.4-0.8-0.6-1.6-0.6-2.6c0-1,0.2-1.9,0.7-2.6s1.1-1.4,1.9-1.8c0.8-0.4,1.7-0.7,2.7-0.7
	c1,0,1.9,0.2,2.7,0.7c0.8,0.4,1.4,1.1,1.9,1.8c0.5,0.8,0.7,1.7,0.7,2.6c0,0.5-0.1,1.1-0.2,1.6c-0.1,0.5-0.3,1.1-0.6,1.6
	c-0.3,0.5-0.7,1.1-1.2,1.8l-4.4,5.7H118.9z M122.8,65.1c0.5,0,1-0.1,1.4-0.4s0.8-0.6,1-1c0.3-0.4,0.4-0.9,0.4-1.5
	c0-0.6-0.1-1.1-0.4-1.5c-0.3-0.4-0.6-0.8-1-1c-0.4-0.3-0.9-0.4-1.4-0.4c-0.5,0-1,0.1-1.4,0.4c-0.4,0.2-0.8,0.6-1,1
	c-0.3,0.4-0.4,0.9-0.4,1.5c0,0.6,0.1,1.1,0.4,1.5c0.3,0.4,0.6,0.8,1,1S122.3,65.1,122.8,65.1z M135.8,73.3c-1.1,0-2.1-0.2-2.9-0.6
	c-0.8-0.4-1.4-1-1.9-1.7c-0.4-0.7-0.7-1.5-0.7-2.4c0-1,0.3-1.9,0.8-2.6c0.6-0.7,1.3-1.3,2.4-1.6l-0.1,0.6c-0.7-0.3-1.3-0.7-1.8-1.4
	c-0.4-0.7-0.6-1.4-0.6-2.2s0.2-1.5,0.6-2.1c0.4-0.6,1-1.1,1.7-1.5c0.7-0.4,1.5-0.5,2.5-0.5c0.9,0,1.7,0.2,2.5,0.5
	c0.7,0.4,1.3,0.8,1.7,1.5c0.4,0.6,0.6,1.4,0.6,2.2c0,0.8-0.2,1.6-0.7,2.2c-0.4,0.6-1,1.1-1.7,1.4l-0.1-0.6c1,0.3,1.8,0.9,2.4,1.6
	c0.6,0.7,0.8,1.6,0.8,2.6c0,0.9-0.2,1.7-0.7,2.4c-0.4,0.7-1.1,1.3-1.9,1.7C137.8,73,136.8,73.3,135.8,73.3z M135.8,71.2
	c0.6,0,1.1-0.1,1.6-0.3c0.4-0.2,0.8-0.6,1.1-1s0.4-0.9,0.4-1.4c0-0.5-0.1-1-0.4-1.4c-0.3-0.4-0.6-0.7-1.1-0.9
	c-0.4-0.2-1-0.3-1.6-0.3c-0.6,0-1.1,0.1-1.6,0.3c-0.4,0.2-0.8,0.5-1.1,0.9c-0.3,0.4-0.4,0.9-0.4,1.4c0,0.5,0.1,1,0.4,1.4
	s0.6,0.7,1.1,1C134.6,71,135.2,71.2,135.8,71.2z M135.8,63.6c0.4,0,0.8-0.1,1.2-0.3c0.4-0.2,0.6-0.5,0.8-0.8
	c0.2-0.3,0.3-0.7,0.3-1.1c0-0.4-0.1-0.8-0.3-1.1c-0.2-0.3-0.5-0.6-0.8-0.8c-0.3-0.2-0.7-0.3-1.2-0.3c-0.4,0-0.8,0.1-1.2,0.3
	c-0.4,0.2-0.6,0.4-0.8,0.8c-0.2,0.3-0.3,0.7-0.3,1.1c0,0.4,0.1,0.8,0.3,1.1s0.5,0.6,0.8,0.8C134.9,63.5,135.3,63.6,135.8,63.6z"/>
<g>
	<path class="st0" d="M30,570h342c5.5,0,10,4.5,10,10v188c0,5.5-4.5,10-10,10H30c-5.5,0-10-4.5-10-10V580C20,574.5,24.5,570,30,570z
		"/>
</g>
<path class="st1" d="M54,681L54,681c5.5,0,10,4.5,10,10l0,0c0,5.5-4.5,10-10,10l0,0c-5.5,0-10-4.5-10-10l0,0
	C44,685.5,48.5,681,54,681z"/>
<path class="st2" d="M57.1,694.8l0.7-0.7l-6.6-6.6h6v-1h-7.7v7.7h1v-6L57.1,694.8z"/>
<path class="st20" d="M71.7,697v-3h-3v-1h3v-3h1.1v3h3v1h-3v3H71.7z M78.2,697l3.6-4.7l0.2-0.1c-0.1,0.2-0.3,0.4-0.5,0.5
	c-0.2,0.1-0.4,0.2-0.6,0.3c-0.2,0.1-0.5,0.1-0.7,0.1c-0.6,0-1.2-0.1-1.6-0.4c-0.5-0.3-0.9-0.7-1.2-1.2c-0.3-0.5-0.4-1.1-0.4-1.7
	c0-0.6,0.1-1.2,0.4-1.7c0.3-0.5,0.7-0.9,1.2-1.2c0.5-0.3,1.1-0.4,1.7-0.4c0.7,0,1.2,0.1,1.7,0.4c0.5,0.3,0.9,0.7,1.2,1.2
	c0.3,0.5,0.4,1.1,0.4,1.8c0,0.4,0,0.7-0.1,1.1c-0.1,0.4-0.2,0.7-0.4,1.1c-0.2,0.4-0.4,0.7-0.7,1.1l-2.9,3.9H78.2z M80.4,692
	c0.4,0,0.8-0.1,1.2-0.3c0.3-0.2,0.6-0.5,0.8-0.8c0.2-0.4,0.3-0.8,0.3-1.2c0-0.4-0.1-0.8-0.3-1.2c-0.2-0.4-0.5-0.6-0.8-0.8
	c-0.3-0.2-0.7-0.3-1.1-0.3c-0.4,0-0.8,0.1-1.1,0.3c-0.3,0.2-0.6,0.5-0.8,0.8c-0.2,0.3-0.3,0.7-0.3,1.2c0,0.4,0.1,0.8,0.3,1.2
	c0.2,0.3,0.5,0.6,0.8,0.8C79.6,691.9,79.9,692,80.4,692z M86.2,697l8.5-10.4h1.4L87.6,697H86.2z M87.7,691.9c-0.5,0-1-0.1-1.4-0.4
	c-0.4-0.3-0.7-0.6-1-1c-0.2-0.4-0.4-0.9-0.4-1.4c0-0.5,0.1-1,0.4-1.4c0.3-0.4,0.6-0.8,1-1c0.4-0.2,0.9-0.4,1.4-0.4s1,0.1,1.4,0.4
	c0.4,0.2,0.7,0.6,1,1c0.2,0.4,0.4,0.9,0.4,1.4c0,0.5-0.1,1-0.4,1.4c-0.2,0.4-0.6,0.7-1,1C88.7,691.7,88.2,691.9,87.7,691.9z
	 M87.7,690.9c0.3,0,0.6-0.1,0.9-0.2c0.3-0.2,0.4-0.4,0.6-0.6c0.1-0.3,0.2-0.6,0.2-0.8c0-0.3-0.1-0.6-0.2-0.8
	c-0.1-0.3-0.3-0.5-0.6-0.6c-0.2-0.2-0.5-0.3-0.9-0.3c-0.3,0-0.6,0.1-0.9,0.3c-0.3,0.2-0.5,0.4-0.6,0.6c-0.1,0.3-0.2,0.5-0.2,0.8
	c0,0.3,0.1,0.6,0.2,0.8c0.1,0.3,0.4,0.5,0.6,0.6C87.1,690.8,87.4,690.9,87.7,690.9z M94.5,697.2c-0.5,0-1-0.1-1.4-0.4
	c-0.4-0.3-0.7-0.6-1-1c-0.2-0.4-0.4-0.9-0.4-1.4c0-0.5,0.1-1,0.4-1.4c0.3-0.4,0.6-0.8,1-1c0.4-0.2,0.9-0.4,1.4-0.4s1,0.1,1.4,0.4
	c0.4,0.2,0.7,0.6,1,1c0.2,0.4,0.4,0.9,0.4,1.4c0,0.5-0.1,1-0.4,1.4c-0.2,0.4-0.6,0.7-1,1C95.4,697,95,697.2,94.5,697.2z M94.5,696.2
	c0.3,0,0.6-0.1,0.9-0.2c0.3-0.2,0.4-0.4,0.6-0.6c0.1-0.3,0.2-0.6,0.2-0.8c0-0.3-0.1-0.6-0.2-0.8c-0.1-0.3-0.3-0.5-0.6-0.6
	c-0.2-0.2-0.5-0.3-0.9-0.3c-0.3,0-0.6,0.1-0.9,0.3c-0.3,0.2-0.5,0.4-0.6,0.6c-0.1,0.3-0.2,0.5-0.2,0.8c0,0.3,0.1,0.6,0.2,0.8
	c0.1,0.3,0.3,0.5,0.6,0.6C93.9,696.1,94.1,696.2,94.5,696.2z"/>
<linearGradient id="SVGID_14_" gradientUnits="userSpaceOnUse" x1="44" y1="729.5" x2="54" y2="729.5">
	<stop  offset="0" style="stop-color:#EC1B69"/>
	<stop  offset="1" style="stop-color:#F05B57"/>
</linearGradient>
<circle class="st21" cx="49" cy="729.5" r="5"/>
<circle class="st8" cx="114" cy="729.5" r="5"/>
<path class="st22" d="M351.4,694c3.6,0,6.6-3,6.2-6.6c-1.1-9.5-4.4-18.7-9.7-26.7c-6.6-9.9-16-17.6-26.9-22.1
	c-11-4.5-23-5.7-34.7-3.4c-11.6,2.3-22.3,8-30.7,16.4c-8.4,8.4-14.1,19.1-16.4,30.7c-2.3,11.6-1.1,23.7,3.4,34.7
	s12.2,20.3,22.1,26.9c8,5.4,17.2,8.7,26.7,9.7c3.6,0.4,6.6-2.6,6.6-6.2c0-3.6-3-6.6-6.6-7.1c-6.9-1-13.6-3.5-19.4-7.4
	c-7.7-5.1-13.7-12.5-17.2-21c-3.5-8.6-4.5-18-2.7-27c1.8-9.1,6.3-17.4,12.8-24c6.5-6.5,14.9-11,24-12.8c9.1-1.8,18.5-0.9,27,2.7
	c8.6,3.5,15.9,9.5,21,17.2c3.9,5.9,6.4,12.5,7.4,19.4C344.8,691,347.8,694,351.4,694z"/>
<path class="st23" d="M266.6,737.2c-2.1,2.9-1.5,7.1,1.7,8.9c8.3,4.8,17.7,7.5,27.4,7.9c11.9,0.5,23.6-2.6,33.7-8.8
	c10.1-6.2,18.2-15.2,23.2-26c4.1-8.8,5.9-18.4,5.5-27.9c-0.2-3.6-3.6-6.1-7.2-5.5c-3.6,0.6-6,4-6,7.6c0.1,7-1.4,13.9-4.3,20.3
	c-3.9,8.4-10.2,15.5-18.1,20.3c-7.9,4.8-17,7.2-26.3,6.8c-7-0.3-13.9-2.2-20.1-5.4C272.8,733.6,268.7,734.2,266.6,737.2z"/>
<linearGradient id="SVGID_15_" gradientUnits="userSpaceOnUse" x1="298" y1="664.1635" x2="357.6731" y2="664.1635">
	<stop  offset="0" style="stop-color:#EC1B69"/>
	<stop  offset="1" style="stop-color:#F05B57"/>
</linearGradient>
<path class="st24" d="M351.4,694c3.6,0,6.6-3,6.2-6.6c-0.6-5.6-2-11.1-4.2-16.4c-3-7.3-7.4-13.9-13-19.5c-5.6-5.6-12.2-10-19.5-13
	c-5.2-2.2-10.8-3.6-16.4-4.2c-3.6-0.4-6.6,2.6-6.6,6.2c0,3.6,3,6.6,6.6,7.1c3.9,0.6,7.7,1.6,11.3,3.1c5.7,2.4,10.8,5.8,15.2,10.1
	c4.3,4.3,7.8,9.5,10.1,15.2c1.5,3.6,2.5,7.4,3.1,11.3C344.8,691,347.8,694,351.4,694z"/>
<g>
	<path shape-rendering="crispEdges" class="st0" d="M225,8h150c4.4,0,8,3.6,8,8v137c0,4.4-3.6,8-8,8H225c-4.4,0-8-3.6-8-8V16
		C217,11.6,220.6,8,225,8z"/>
	<linearGradient id="SVGID_16_" gradientUnits="userSpaceOnUse" x1="273.924" y1="128.1775" x2="326.758" y2="128.1775">
		<stop  offset="0" style="stop-color:#EC1B69"/>
		<stop  offset="1" style="stop-color:#F05B57"/>
	</linearGradient>
	<path class="st25" d="M280.1,136.3c-1,0-1.9-0.2-2.7-0.5c-0.8-0.4-1.6-0.9-2.1-1.5c-0.6-0.6-1-1.4-1.3-2.2l2.1-0.9
		c0.4,1,0.9,1.7,1.7,2.2c0.7,0.5,1.6,0.8,2.5,0.8c0.6,0,1-0.1,1.5-0.3c0.4-0.2,0.7-0.4,1-0.8c0.2-0.3,0.4-0.7,0.4-1.1
		c0-0.6-0.2-1-0.5-1.4s-0.8-0.6-1.4-0.8l-2.9-0.9c-1.2-0.4-2.1-0.9-2.7-1.7c-0.6-0.8-0.9-1.6-0.9-2.6c0-0.9,0.2-1.7,0.7-2.3
		c0.4-0.7,1-1.2,1.8-1.6c0.8-0.4,1.6-0.6,2.6-0.6c0.9,0,1.8,0.2,2.6,0.5c0.8,0.3,1.4,0.8,2,1.3c0.6,0.6,1,1.2,1.2,2l-2.1,0.9
		c-0.3-0.8-0.8-1.5-1.4-1.9c-0.6-0.4-1.4-0.7-2.2-0.7c-0.5,0-1,0.1-1.4,0.3c-0.4,0.2-0.7,0.4-0.9,0.8c-0.2,0.3-0.3,0.7-0.3,1.1
		c0,0.5,0.2,1,0.5,1.3c0.3,0.4,0.8,0.7,1.5,0.9l2.7,0.9c1.2,0.4,2.2,0.9,2.8,1.6c0.6,0.7,0.9,1.6,0.9,2.6c0,0.9-0.2,1.6-0.7,2.3
		c-0.4,0.7-1.1,1.2-1.9,1.6C282.1,136.1,281.1,136.3,280.1,136.3z M279.1,138.1v-19.8h1.7v19.8H279.1z M288.9,136l5.4-6.9l0.4,0.3
		c-0.2,0.2-0.4,0.4-0.7,0.5c-0.2,0.1-0.5,0.2-0.7,0.3c-0.3,0.1-0.5,0.1-0.8,0.1c-0.9,0-1.8-0.2-2.5-0.6c-0.7-0.4-1.3-1-1.8-1.8
		c-0.4-0.8-0.6-1.6-0.6-2.6c0-1,0.2-1.9,0.7-2.6c0.5-0.8,1.1-1.4,1.9-1.8s1.7-0.7,2.7-0.7c1,0,1.9,0.2,2.7,0.7
		c0.8,0.4,1.4,1.1,1.9,1.8c0.5,0.8,0.7,1.7,0.7,2.6c0,0.5-0.1,1.1-0.2,1.6c-0.1,0.5-0.3,1.1-0.6,1.6c-0.3,0.5-0.7,1.1-1.2,1.8
		l-4.4,5.7H288.9z M292.9,128.1c0.5,0,1-0.1,1.4-0.4c0.4-0.3,0.8-0.6,1-1c0.3-0.4,0.4-0.9,0.4-1.5c0-0.6-0.1-1.1-0.4-1.5
		c-0.3-0.4-0.6-0.8-1-1c-0.4-0.3-0.9-0.4-1.4-0.4c-0.5,0-1,0.1-1.4,0.4c-0.4,0.2-0.8,0.6-1,1c-0.3,0.4-0.4,0.9-0.4,1.5
		c0,0.6,0.1,1.1,0.4,1.5c0.3,0.4,0.6,0.8,1,1S292.4,128.1,292.9,128.1z M305.1,136.3c-1,0-1.9-0.2-2.7-0.7c-0.8-0.4-1.4-1.1-1.9-1.8
		c-0.4-0.8-0.7-1.7-0.7-2.7c0-0.5,0.1-1,0.2-1.6s0.3-1.1,0.6-1.6c0.3-0.6,0.7-1.2,1.2-1.8l4.4-5.7h3l-5.4,6.9l-0.4-0.3
		c0.2-0.2,0.4-0.4,0.6-0.5c0.2-0.1,0.5-0.2,0.7-0.3c0.3-0.1,0.5-0.1,0.8-0.1c0.9,0,1.8,0.2,2.5,0.7s1.3,1,1.7,1.8
		c0.4,0.7,0.7,1.6,0.7,2.6c0,1-0.2,1.9-0.7,2.6c-0.5,0.8-1.1,1.4-1.9,1.8C307.1,136,306.2,136.3,305.1,136.3z M305.1,134
		c0.5,0,1-0.1,1.4-0.4s0.8-0.6,1-1c0.3-0.4,0.4-1,0.4-1.5c0-0.6-0.1-1.1-0.4-1.5c-0.2-0.4-0.6-0.8-1-1c-0.4-0.3-0.9-0.4-1.4-0.4
		c-0.5,0-1,0.1-1.4,0.4c-0.4,0.2-0.8,0.6-1,1c-0.3,0.4-0.4,0.9-0.4,1.5c0,0.6,0.1,1.1,0.4,1.5c0.3,0.4,0.6,0.8,1,1
		C304.1,133.9,304.6,134,305.1,134z M316.5,136v-15.9h2.4v10.6l-0.9-0.2l5.7-5.9h3l-4.3,4.6l4.5,6.8H324l-4-6l1.4-0.2l-3.4,3.6
		l0.8-1.6v4.2H316.5z"/>
</g>
<g>
	<linearGradient id="SVGID_17_" gradientUnits="userSpaceOnUse" x1="21" y1="252.5" x2="383" y2="252.5">
		<stop  offset="0" style="stop-color:#EC1B69"/>
		<stop  offset="1" style="stop-color:#F05B57"/>
	</linearGradient>
	<path class="st26" d="M31,185h342c5.5,0,10,4.5,10,10v115c0,5.5-4.5,10-10,10H31c-5.5,0-10-4.5-10-10V195C21,189.5,25.5,185,31,185
		z"/>
</g>
<path class="st0" d="M57.2,237.3c-0.8,0-1.6-0.2-2.4-0.5c-0.7-0.3-1.4-0.7-1.9-1.3c-0.5-0.6-0.9-1.2-1.1-2l2.1-0.8
	c0.3,0.7,0.7,1.3,1.3,1.7c0.6,0.4,1.2,0.6,2,0.6c0.6,0,1.1-0.1,1.6-0.4c0.5-0.2,0.8-0.6,1.1-1c0.3-0.4,0.4-1,0.4-1.6
	c0-0.6-0.1-1.1-0.4-1.6c-0.3-0.4-0.6-0.8-1.1-1c-0.4-0.2-1-0.3-1.6-0.3c-0.3,0-0.5,0-0.8,0.1c-0.3,0-0.5,0.1-0.7,0.2l-0.5-1.2
	l4.1-4.9h-6.7v-2.1H62v2l-4,4.8l-0.1-0.8c0.9,0,1.8,0.2,2.5,0.6c0.7,0.4,1.3,0.9,1.7,1.6c0.4,0.7,0.6,1.5,0.6,2.4
	c0,1-0.2,1.9-0.7,2.7c-0.5,0.8-1.1,1.4-2,1.9C59.2,237,58.2,237.3,57.2,237.3z M64.9,237v-1.8l4.3-4.6c0.8-0.9,1.5-1.6,2-2.2
	c0.5-0.6,0.8-1.1,1.1-1.5c0.2-0.4,0.3-0.9,0.3-1.3c0-0.8-0.2-1.3-0.7-1.7c-0.5-0.4-1.1-0.6-1.8-0.6c-0.8,0-1.4,0.2-2,0.7
	c-0.5,0.4-0.9,1-1.1,1.8l-2.2-0.6c0.2-0.8,0.5-1.5,1-2.1c0.5-0.6,1.1-1.1,1.8-1.4c0.7-0.3,1.5-0.5,2.4-0.5c1,0,1.9,0.2,2.6,0.6
	c0.7,0.4,1.3,0.9,1.7,1.5c0.4,0.7,0.6,1.4,0.6,2.3c0,0.6-0.1,1.1-0.3,1.7c-0.2,0.5-0.5,1.1-1,1.7c-0.4,0.6-1,1.3-1.7,2l-3.8,4h7.1
	v2.1H64.9z M82.7,237.3c-1,0-1.9-0.2-2.7-0.7c-0.8-0.4-1.4-1.1-1.9-1.8c-0.4-0.8-0.7-1.7-0.7-2.7c0-0.5,0.1-1,0.2-1.6
	s0.3-1.1,0.6-1.6c0.3-0.6,0.7-1.2,1.2-1.8l4.4-5.7h3l-5.4,6.9l-0.4-0.3c0.2-0.2,0.4-0.4,0.6-0.5c0.2-0.1,0.5-0.2,0.7-0.3
	c0.3-0.1,0.5-0.1,0.8-0.1c0.9,0,1.8,0.2,2.5,0.7c0.7,0.4,1.3,1,1.7,1.8c0.4,0.7,0.7,1.6,0.7,2.6c0,1-0.2,1.9-0.7,2.6
	c-0.5,0.8-1.1,1.4-1.9,1.8C84.7,237,83.7,237.3,82.7,237.3z M82.7,235c0.5,0,1-0.1,1.4-0.4s0.8-0.6,1-1c0.3-0.4,0.4-1,0.4-1.5
	c0-0.6-0.1-1.1-0.4-1.5c-0.2-0.4-0.6-0.8-1-1c-0.4-0.3-0.9-0.4-1.4-0.4c-0.5,0-1,0.1-1.4,0.4c-0.4,0.2-0.8,0.6-1,1
	c-0.3,0.4-0.4,0.9-0.4,1.5c0,0.6,0.1,1.1,0.4,1.5c0.3,0.4,0.6,0.8,1,1C81.7,234.9,82.2,235,82.7,235z M90.6,237l6.7-13.5h-7.5v-2.1
	h10.1v2.1L93.3,237H90.6z"/>
<path class="st27" d="M319,218.5h24c4.4,0,8,3.6,8,8v24c0,4.4-3.6,8-8,8h-24c-4.4,0-8-3.6-8-8v-24C311,222.1,314.6,218.5,319,218.5z
	"/>
<path class="st0" d="M321,248.3l1.8-6c-0.3-0.7-0.6-1.4-0.7-2.1c-0.2-0.7-0.3-1.4-0.3-2.2c0-1.3,0.2-2.6,0.8-3.7
	c0.5-1.2,1.2-2.2,2-3c0.9-0.8,1.9-1.5,3-2c1.2-0.5,2.4-0.8,3.7-0.8c1.3,0,2.6,0.2,3.7,0.8c1.2,0.5,2.2,1.2,3,2c0.9,0.9,1.5,1.9,2,3
	c0.5,1.2,0.8,2.4,0.8,3.7s-0.2,2.6-0.8,3.7c-0.5,1.2-1.2,2.2-2,3c-0.9,0.8-1.9,1.5-3,2c-1.2,0.5-2.4,0.8-3.7,0.8
	c-0.8,0-1.5-0.1-2.2-0.3c-0.7-0.2-1.4-0.4-2.1-0.7L321,248.3z M323.2,246.1l3.2-0.9c0.2-0.1,0.5-0.1,0.7-0.1c0.2,0,0.5,0.1,0.7,0.2
	c0.5,0.3,1.1,0.5,1.7,0.6s1.2,0.2,1.8,0.2c2.2,0,4.1-0.8,5.7-2.3c1.5-1.6,2.3-3.4,2.3-5.7s-0.8-4.1-2.3-5.7
	c-1.6-1.6-3.4-2.3-5.7-2.3s-4.1,0.8-5.7,2.3c-1.6,1.6-2.3,3.4-2.3,5.7c0,0.6,0.1,1.2,0.2,1.8c0.1,0.6,0.3,1.1,0.6,1.7
	c0.1,0.2,0.2,0.4,0.2,0.7c0,0.2,0,0.5-0.1,0.7L323.2,246.1z"/>
<path class="st28" d="M54,281h294c1.7,0,3,1.3,3,3l0,0c0,1.7-1.3,3-3,3H54c-1.7,0-3-1.3-3-3l0,0C51,282.3,52.3,281,54,281z"/>
<path class="st0" d="M54,281h189c1.7,0,3,1.3,3,3l0,0c0,1.7-1.3,3-3,3H54c-1.7,0-3-1.3-3-3l0,0C51,282.3,52.3,281,54,281z"/>
<path class="st0" d="M217.4,253h35c2.2,0,4,1.8,4,4v12c0,2.2-1.8,4-4,4h-35c-2.2,0-4-1.8-4-4v-12C213.4,254.8,215.2,253,217.4,253z"
	/>
<path class="st29" d="M225,267.6c-0.6,0-1.1-0.1-1.6-0.4c-0.5-0.3-0.8-0.6-1.1-1.1c-0.3-0.4-0.4-1-0.4-1.5c0-0.3,0-0.6,0.1-0.9
	c0.1-0.3,0.2-0.6,0.3-0.9c0.2-0.3,0.4-0.7,0.7-1l2.5-3.3h1.7l-3.1,4l-0.2-0.2c0.1-0.1,0.2-0.2,0.4-0.3c0.1-0.1,0.3-0.1,0.4-0.2
	c0.2,0,0.3,0,0.5,0c0.5,0,1,0.1,1.4,0.4c0.4,0.2,0.8,0.6,1,1c0.2,0.4,0.4,0.9,0.4,1.5c0,0.6-0.1,1.1-0.4,1.5c-0.3,0.4-0.6,0.8-1.1,1
	C226.1,267.5,225.6,267.6,225,267.6z M225,266.4c0.3,0,0.6-0.1,0.8-0.2c0.2-0.1,0.4-0.3,0.6-0.6c0.1-0.3,0.2-0.5,0.2-0.9
	c0-0.3-0.1-0.6-0.2-0.9c-0.1-0.2-0.3-0.4-0.6-0.6c-0.2-0.1-0.5-0.2-0.8-0.2c-0.3,0-0.6,0.1-0.8,0.2c-0.2,0.1-0.4,0.3-0.6,0.6
	c-0.1,0.2-0.2,0.5-0.2,0.9c0,0.3,0.1,0.6,0.2,0.9c0.1,0.2,0.3,0.4,0.6,0.6C224.4,266.3,224.7,266.4,225,266.4z M232.2,267.6
	c-0.5,0-0.9-0.1-1.3-0.3c-0.4-0.2-0.8-0.4-1.1-0.7c-0.3-0.3-0.5-0.7-0.6-1.1l1.2-0.5c0.2,0.4,0.4,0.7,0.7,1s0.7,0.3,1.1,0.3
	c0.3,0,0.6-0.1,0.9-0.2c0.3-0.2,0.5-0.4,0.6-0.6c0.2-0.3,0.2-0.6,0.2-0.9c0-0.3-0.1-0.6-0.2-0.9c-0.1-0.3-0.3-0.5-0.6-0.6
	c-0.3-0.2-0.6-0.2-0.9-0.2s-0.6,0.1-0.9,0.2s-0.5,0.4-0.6,0.6l-1.1-0.3l0.7-4.9h4.8v1.2h-4.2l0.5-0.6l-0.5,3.8l-0.4-0.3
	c0.2-0.3,0.5-0.6,0.9-0.7c0.3-0.2,0.7-0.2,1.2-0.2c0.6,0,1.1,0.1,1.5,0.4c0.4,0.3,0.8,0.6,1,1.1c0.2,0.4,0.4,0.9,0.4,1.5
	c0,0.6-0.1,1.1-0.4,1.5s-0.6,0.8-1.1,1.1C233.3,267.5,232.8,267.6,232.2,267.6z M237.8,267.5l7.3-8.9h1.5l-7.3,8.9H237.8z
	 M239.2,263.1c-0.4,0-0.8-0.1-1.2-0.3c-0.4-0.2-0.6-0.5-0.9-0.9c-0.2-0.4-0.3-0.7-0.3-1.2c0-0.4,0.1-0.8,0.3-1.2
	c0.2-0.4,0.5-0.6,0.9-0.9s0.7-0.3,1.2-0.3s0.8,0.1,1.2,0.3c0.4,0.2,0.6,0.5,0.8,0.9c0.2,0.4,0.3,0.7,0.3,1.2c0,0.4-0.1,0.8-0.3,1.2
	c-0.2,0.4-0.5,0.6-0.8,0.9C240,263,239.6,263.1,239.2,263.1z M239.2,262c0.2,0,0.5-0.1,0.6-0.2c0.2-0.1,0.3-0.3,0.4-0.5
	c0.1-0.2,0.1-0.4,0.1-0.6c0-0.2,0-0.4-0.1-0.6c-0.1-0.2-0.2-0.3-0.4-0.5c-0.2-0.1-0.4-0.2-0.6-0.2c-0.2,0-0.5,0.1-0.6,0.2
	c-0.2,0.1-0.3,0.3-0.4,0.5c-0.1,0.2-0.1,0.4-0.1,0.6c0,0.2,0,0.4,0.1,0.6c0.1,0.2,0.2,0.3,0.4,0.5S238.9,262,239.2,262z
	 M245.1,267.6c-0.4,0-0.8-0.1-1.2-0.3c-0.4-0.2-0.6-0.5-0.8-0.9c-0.2-0.4-0.3-0.7-0.3-1.2c0-0.4,0.1-0.8,0.3-1.2
	c0.2-0.4,0.5-0.6,0.8-0.9c0.4-0.2,0.8-0.3,1.2-0.3c0.4,0,0.8,0.1,1.2,0.3c0.4,0.2,0.6,0.5,0.8,0.9c0.2,0.4,0.3,0.7,0.3,1.2
	c0,0.4-0.1,0.8-0.3,1.2c-0.2,0.4-0.5,0.6-0.8,0.9C246,267.5,245.6,267.6,245.1,267.6z M245.1,266.6c0.2,0,0.5-0.1,0.6-0.2
	c0.2-0.1,0.3-0.3,0.4-0.5c0.1-0.2,0.2-0.4,0.2-0.6c0-0.2-0.1-0.4-0.2-0.6c-0.1-0.2-0.2-0.3-0.4-0.5c-0.2-0.1-0.4-0.2-0.6-0.2
	c-0.2,0-0.5,0.1-0.6,0.2c-0.2,0.1-0.3,0.3-0.4,0.5c-0.1,0.2-0.1,0.4-0.1,0.6c0,0.2,0,0.4,0.1,0.6c0.1,0.2,0.2,0.3,0.4,0.5
	C244.7,266.5,244.9,266.6,245.1,266.6z"/>
<path class="st0" d="M234.9,277l4-4h-8L234.9,277z"/>
<text transform="matrix(1 0 0 1 46.9238 47.0527)" class="st3 st30 st31">Ingresos</text>
<text transform="matrix(1 0 0 1 46.9238 258.416)"><tspan x="0" y="0" class="st0 st30 st31">Ocupaci</tspan><tspan x="51.6" y="0" class="st0 st32 st31">ón Total</tspan></text>
<g>
	<path class="st33" d="M283.8,37c1.1,0,2.2,0,3.4,0c0.1,0.1,0.2,0.1,0.3,0.1c1.4,0.1,2.8,0.4,4.1,0.8c2.3,0.7,4.4,1.8,6.3,3.4
		c-0.1,0.1-0.3,0.3-0.4,0.4c-1.1,1-2.2,2-3,3.2c-2.1,2.8-3.4,5.9-3.9,9.3c-0.3,2.1-0.3,4.1,0,6.2c0.5,3.1,1.7,6,3.6,8.6
		c0.7,1,1.5,1.8,2.3,2.6c0.5,0.4,1,0.8,1.4,1.3c0,0-0.1,0.1-0.1,0.1c-3.4,2.6-7.3,4-11.7,4.2c-3.8,0.1-7.5-0.8-10.8-2.8
		c-5.4-3.3-8.6-8-9.7-14.2c-0.1-0.5,0-1-0.2-1.4c0-1.1,0-2.2,0-3.4c0.1,0,0.1-0.1,0.1-0.2c0.3-3.3,1.3-6.3,3.2-9.1
		c3.3-4.9,7.9-7.9,13.8-8.9C283,37.1,283.4,37.2,283.8,37z"/>
	<path class="st34" d="M308.8,37c1.1,0,2.1,0,3.2,0c0.7,0.2,1.3,0.2,2,0.3c8.2,1.5,14.7,8,16.2,16.2c0.1,0.6,0.1,1.3,0.3,1.9
		c0,1.2,0,2.3,0,3.5c-0.1,0-0.1,0.1-0.1,0.2c-0.1,1.2-0.3,2.4-0.7,3.6c-2.3,8.5-10.3,14.6-19.1,14.6c-2.7,0-5.2-0.4-7.7-1.4
		c-1.8-0.7-3.4-1.6-4.9-2.8c0.1-0.1,0.2-0.2,0.3-0.3c1.2-1,2.2-2.1,3.2-3.3c2.5-3.3,3.8-7.1,4.1-11.2c0.1-1.5,0-2.9-0.3-4.3
		c-0.8-4.5-2.9-8.4-6.3-11.5c-0.3-0.3-0.7-0.6-1-0.9c0,0,0.1-0.1,0.1-0.1c2.6-2,5.4-3.2,8.6-3.8C307.4,37.2,308.1,37.2,308.8,37z"/>
	<path class="st35" d="M297.9,41.3c0,0,0.1,0,0.1,0c0.3,0.4,0.7,0.6,1,0.9c3.4,3.1,5.5,7,6.3,11.5c0.3,1.4,0.4,2.9,0.3,4.3
		c-0.3,4.1-1.6,7.9-4.1,11.2c-0.9,1.2-2,2.3-3.2,3.3c-0.1,0.1-0.2,0.2-0.3,0.3c0,0-0.1,0-0.1,0c-0.4-0.5-0.9-0.9-1.4-1.3
		c-0.9-0.8-1.6-1.7-2.3-2.6c-1.9-2.6-3.1-5.5-3.6-8.6c-0.3-2.1-0.4-4.1,0-6.2c0.5-3.4,1.8-6.5,3.9-9.3c0.9-1.2,1.9-2.2,3-3.2
		C297.7,41.6,297.8,41.4,297.9,41.3z"/>
</g>
<path class="st36" d="M335.3,106.4c-0.1-0.2-0.3-0.2-0.5-0.2c-1.6-0.6-2.6-2.1-2.5-3.9c0.1-1.9,1.2-3.3,2.9-3.7
	c1.2-0.3,2.3-0.1,3.3,0.9c0-1.2,0-2.3,0-3.4c0-0.4,0-0.6,0.5-0.6c1.1,0,1.2,0,1.2,1.1c0,3,0,5.9,0,8.9c0,0.5-0.1,0.7-0.6,0.6
	c-0.1,0-0.2,0-0.2,0c-0.6,0.1-1,0-0.8-1c-0.6,0.7-1.2,1-1.9,1.1C336.3,106.4,335.8,106.4,335.3,106.4z M334.1,102.4
	c0,1.4,1,2.5,2.4,2.5c1.3,0,2.2-1.1,2.2-2.5c0-1.4-1-2.5-2.3-2.5C335.1,99.9,334.1,101,334.1,102.4z"/>
<path class="st36" d="M320,106.4c-0.1-0.2-0.3-0.2-0.5-0.2c-1.6-0.6-2.6-2.1-2.5-3.9c0.1-1.8,1.2-3.3,2.8-3.7
	c1.2-0.3,2.4-0.1,3.3,0.9c0-0.1,0.1-0.1,0.1-0.1c-0.1-0.6,0.1-0.8,0.7-0.7c0.9,0.1,1,0,1,1c0,2,0,4.1,0,6.1c0,0.4-0.1,0.7-0.5,0.6
	c-0.1,0-0.2,0-0.3,0c-0.6,0.1-1.1,0-0.8-0.9c-0.5,0.6-1.2,0.8-1.8,1C321,106.4,320.5,106.4,320,106.4z M323.4,102.4
	c0-1.4-0.9-2.5-2.3-2.5c-1.3,0-2.3,1-2.3,2.4c0,1.4,1,2.5,2.3,2.5C322.4,104.9,323.4,103.8,323.4,102.4z"/>
<path class="st36" d="M273.4,106.4c-0.1-0.2-0.3-0.2-0.4-0.2c-1.9-0.7-2.9-2.7-2.4-4.7c0.4-2,2.1-3.1,4.1-3c0.8,0.1,1.4,0.4,1.9,0.9
	c0,0,0.1-0.1,0.1-0.1c-0.1-0.6,0.1-0.8,0.7-0.7c0.2,0,0.4,0,0.6,0c0.2,0,0.4,0,0.4,0.3c0,2.3,0,4.7,0,7c0,0.2,0,0.3-0.2,0.3
	c-0.4,0-0.8,0-1.2,0c-0.5-0.1-0.1-0.5-0.3-0.8c-0.4,0.6-1,0.7-1.6,1C274.5,106.4,273.9,106.4,273.4,106.4z M276.8,102.4
	c0-1.4-1-2.5-2.3-2.5c-1.3,0-2.3,1-2.3,2.4c0,1.4,1,2.5,2.3,2.5C275.8,104.9,276.8,103.8,276.8,102.4z"/>
<path class="st37" d="M298.1,106.4c-0.1-0.2-0.3-0.2-0.5-0.2c-1.7-0.6-2.6-2-2.6-4c0.1-1.9,1.1-3.2,2.9-3.7c2.4-0.6,4.3,0.9,4.4,3.6
	c0.1,1,0.1,1-1,1c-1.4,0-2.8,0-4.2,0c-0.5,0-0.5,0.1-0.3,0.5c0.4,0.9,1.4,1.5,2.6,1.3c0.5-0.1,1-0.2,1.4-0.5
	c0.3-0.2,0.5-0.2,0.7,0.1c0.6,0.9,0.6,0.9-0.4,1.4c-0.5,0.2-1,0.3-1.5,0.5C299.1,106.4,298.6,106.4,298.1,106.4z M298.7,101.7
	c0.5,0,1.1,0,1.6,0c0.4,0,0.4-0.1,0.3-0.5c-0.3-0.9-0.9-1.4-1.9-1.4c-0.9,0-1.7,0.6-1.9,1.4c-0.1,0.4,0,0.4,0.3,0.4
	C297.7,101.7,298.2,101.7,298.7,101.7z"/>
<path class="st36" d="M282,106.4c-0.6-0.3-1.2-0.4-1.8-0.7c-0.3-0.2-0.4-0.3-0.2-0.6c0.5-0.8,0.5-0.8,1.4-0.5
	c0.9,0.4,1.8,0.5,2.7,0.2c0.4-0.1,0.8-0.3,0.8-0.8c0-0.5-0.4-0.6-0.8-0.7c-0.6-0.1-1.2-0.2-1.8-0.3c-1.6-0.3-2.3-1.2-2.1-2.6
	c0.2-1,0.8-1.5,1.7-1.8c1.4-0.4,2.8-0.3,4.1,0.3c0.3,0.1,0.4,0.3,0.2,0.7c-0.5,0.9-0.5,0.9-1.4,0.6c-0.7-0.2-1.5-0.4-2.2-0.2
	c-0.4,0.1-0.7,0.3-0.7,0.8c0,0.4,0.4,0.5,0.7,0.6c0.6,0.1,1.3,0.2,1.9,0.3c1.5,0.4,2.2,1.3,2,2.6c-0.2,0.9-1.1,1.7-2.3,1.9
	c-0.1,0-0.3-0.1-0.4,0.1C283.3,106.4,282.7,106.4,282,106.4z"/>
<path class="st38" d="M291,106.4c-1.5-0.6-1.8-1.8-1.7-3.2c0-0.9,0-1.8,0-2.6c0-0.4-0.1-0.5-0.5-0.5c-1.1,0-1.1,0-1.1-1.1
	c0-0.3,0.1-0.4,0.4-0.4c1.1,0,1.1,0,1.1-1.2c0-1.1,0-1.1,1.1-1.1c0.5,0,0.6,0.1,0.6,0.6c0,0.5-0.3,1.3,0.1,1.6
	c0.3,0.3,1,0.1,1.6,0.1c1.1,0,1.2,0.2,1,1.3c0,0.3-0.2,0.2-0.4,0.2c-0.6,0-1.2,0-1.9,0c-0.4,0-0.5,0.1-0.5,0.5c0,0.9,0,1.8,0,2.7
	c0,1.3,0.5,1.8,1.8,1.4c0.2-0.1,0.6-0.4,0.7-0.2c0.2,0.3,0.3,0.8,0.4,1.2c0,0.2-0.2,0.2-0.3,0.2c-0.4,0.1-0.7,0.3-1.1,0.4
	C292.1,106.4,291.5,106.4,291,106.4z"/>
<path class="st37" d="M312.6,106.4c-0.1-0.2-0.4-0.2-0.6-0.2c-1.7-0.6-2.7-2.3-2.5-4.2c0.3-2,1.6-3.3,3.5-3.5c1-0.1,1.9,0,2.8,0.5
	c0.3,0.2,0.4,0.4,0.2,0.7c-0.2,0.3-0.3,0.7-0.6,0.8c-0.2,0.1-0.5-0.2-0.8-0.4c-1.4-0.6-2.8,0-3.3,1.2c-0.5,1.4,0.1,2.9,1.3,3.3
	c0.8,0.3,1.6,0.1,2.3-0.3c0.4-0.2,0.5-0.1,0.7,0.2c0.6,1,0.6,1.1-0.5,1.5c-0.3,0.1-0.6,0.1-0.8,0.3
	C313.8,106.4,313.2,106.4,312.6,106.4z"/>
<path class="st37" d="M258.6,99.4c0.7-0.8,1.5-1,2.4-1c0.8,0.1,1.5,0.4,2,1c0.2,0.2,0.3,0.3,0.5,0c1-1.1,2.3-1.3,3.7-0.8
	c1.2,0.4,1.7,1.3,1.7,2.5c0.1,1.6,0,3.2,0,4.7c0,0.2-0.1,0.4-0.3,0.3c0,0,0,0-0.1,0c-1.5,0.1-1.4,0.1-1.5-1.4c0-1.1,0-2.2,0-3.2
	c-0.1-1.1-0.6-1.6-1.6-1.6c-1,0-1.8,0.5-1.8,1.6c-0.1,1.3-0.1,2.7,0,4c0,0.5-0.1,0.7-0.6,0.6c-1.1,0-1.1,0-1.1-1.1
	c0-1.2,0-2.3,0-3.5c-0.1-1.1-0.6-1.7-1.6-1.7c-1.1,0-1.7,0.5-1.8,1.6c-0.1,1.3-0.1,2.7,0,4c0,0.4-0.1,0.6-0.6,0.6
	c-1.1,0-1.1,0-1.1-1.1c0-2,0-4,0-5.9c0-0.5,0.2-0.7,0.6-0.6c0.1,0,0.1,0,0.2,0C258.4,98.6,258.4,98.6,258.6,99.4z"/>
<path class="st39" d="M328.8,99.4c0.8-1,1.7-1.1,2.7-1c0.3,0,0.5,0.1,0.3,0.4c-0.1,0.1-0.1,0.2-0.1,0.3c-0.1,0.6-0.3,0.9-1.1,0.8
	c-1-0.2-1.6,0.4-1.8,1.4c-0.2,1.4-0.1,2.8-0.1,4.2c0,0.5-0.1,0.7-0.7,0.7c-1-0.1-1,0-1-1c0-2.1,0-4.1,0-6.2c0-0.4,0.1-0.6,0.5-0.5
	c0.1,0,0.2,0,0.4,0C328.5,98.6,329,98.5,328.8,99.4z"/>
<path class="st37" d="M305.9,99.4c0.8-1,1.7-1,2.8-1c0.2,0,0.3,0.1,0.2,0.3c0,0.1-0.1,0.3-0.1,0.4c-0.2,0.8-0.2,0.8-1.1,0.8
	c-1-0.1-1.7,0.5-1.8,1.6c0,1.4,0,2.8,0,4.1c0,0.4-0.1,0.5-0.5,0.5c-1.1,0-1.1,0-1.1-1.2c0-2,0-4,0-6c0-0.4,0.1-0.5,0.5-0.5
	c0.1,0,0.3,0,0.4,0C305.6,98.5,306.1,98.6,305.9,99.4z"/>
<text transform="matrix(1 0 0 1 46.9243 399.7441)" class="st7 st30 st40">Rendimiento Semana</text>
<text transform="matrix(1 0 0 1 46.9243 629.079)" class="st30 st41">Ingresos Mes</text>
<text transform="matrix(1 0 0 1 103.5428 694.5)" class="st20 st30 st42">mes anterior</text>
<text transform="matrix(1 0 0 1 44 674)" class="st30 st43">$36’458.900</text>
<text transform="matrix(1 0 0 1 58.812 733.244)" class="st3 st30 st44">Feb</text>
<text transform="matrix(1 0 0 1 127.9698 733.244)" class="st3 st30 st44">Ene</text>
</svg>
