<?xml version="1.0" encoding="utf-8"?>
<!-- Generator: Adobe Illustrator 24.2.3, SVG Export Plug-In . SVG Version: 6.00 Build 0)  -->
<svg version="1.1" id="Capa_1" xmlns="http://www.w3.org/2000/svg" xmlns:xlink="http://www.w3.org/1999/xlink" x="0px" y="0px"
	 viewBox="0 0 1024.2 353" style="enable-background:new 0 0 1024.2 353;" xml:space="preserve">
<style type="text/css">
	.st0{fill:url(#SVGID_1_);}
	.st1{fill:url(#SVGID_2_);}
	.st2{fill:#1D1029;}
</style>
<g id="Logo_3_">
	<g id="Logogram_3_">
		
			<linearGradient id="SVGID_1_" gradientUnits="userSpaceOnUse" x1="-677.1138" y1="-84.8354" x2="-461.14" y2="116.5949" gradientTransform="matrix(0 -1 1 0 78.0873 -360.55)">
			<stop  offset="0" style="stop-color:#EC1B69"/>
			<stop  offset="1" style="stop-color:#F05B57"/>
		</linearGradient>
		<path class="st0" d="M232.6,34l-67.4,270.9c-5.2,24.6-26.9,42.1-52,42.1H39.8c-15.4,0-26.9-14.2-23.6-29.2L83.6,47
			c5.2-24.6,26.9-42.1,52-42.1H209C224.4,4.8,235.8,19,232.6,34z"/>
		
			<linearGradient id="SVGID_2_" gradientUnits="userSpaceOnUse" x1="-696.6118" y1="117.6854" x2="-558.9747" y2="246.0543" gradientTransform="matrix(0 -1 1 0 78.0873 -360.55)">
			<stop  offset="0" style="stop-color:#EC1B69"/>
			<stop  offset="1" style="stop-color:#F05B57"/>
		</linearGradient>
		<path class="st1" d="M368.7,173.2l-20.6,92c-8.7,40.7-44.7,69.8-86.3,69.8h-59.2c-8.1,0-14.1-7.5-12.5-15.4l20.6-92
			c8.7-40.7,44.7-69.8,86.3-69.8h59.2C364.3,157.8,370.4,165.3,368.7,173.2z"/>
	</g>
</g>
<g>
	<g>
		<path class="st2" d="M416.8,160.4h21.5v38.8c4.6-4.1,11-6.5,18.4-6.5c15.9,0,26.7,10.8,26.7,26v43.7h-21.5v-38.9
			c0-7.2-4.9-11.9-11.7-11.9c-6.9,0-11.9,4.8-11.9,11.9v38.9h-21.5V160.4z"/>
		<path class="st2" d="M492.7,228.1c0-20.2,16-35.5,37.3-35.5c21.2,0,37.3,15.3,37.3,35.5c0,20.4-16,35.8-37.3,35.8
			C508.8,263.9,492.7,248.3,492.7,228.1z M545.5,228.1c0-9.5-6.3-16-15.4-16s-15.4,6.6-15.4,16.1s6.3,16.1,15.4,16.1
			C539.3,244.4,545.5,237.8,545.5,228.1z"/>
		<path class="st2" d="M586.3,212.4h-15.4v-18.3h15.4v-28.2h21.5v28.2h15.4v18.3h-15.4v50h-21.5V212.4z"/>
		<path class="st2" d="M626.8,228.2c0-20.4,15.9-35.7,36.6-35.7c20.1,0,34.4,14.3,34.4,34.1c0,2.5-0.3,5.1-1,8.6l-48.9,0.1
			c2.2,7.6,8.1,11.9,16.8,11.9c6.7,0,12.2-2.2,16.3-7l11.8,11.8c-6.7,7.9-16.4,11.8-27.9,11.8C642.8,263.9,626.8,249,626.8,228.2z
			 M648,220.7l29.8-0.1c-1.7-7.6-6.5-11.5-14.2-11.5C655.7,209,650.1,213.4,648,220.7z"/>
		<path class="st2" d="M708.2,160.4h21.5v101.9h-21.5V160.4z"/>
		<path class="st2" d="M740.6,228.2c0-20.4,13.9-35.5,32.7-35.5c7.6,0,14.2,2.7,18.8,7v-5.6h21.1v68.2h-21.1v-5.6
			c-4.6,4.4-11.2,7-18.8,7C754.5,263.8,740.6,248.6,740.6,228.2z M793,228.2c0-9.5-6.2-16.1-15.2-16.1s-15.4,6.7-15.4,16.1
			s6.5,16.1,15.3,16.1C786.8,244.4,793,237.8,793,228.2z"/>
		<path class="st2" d="M828.4,194.1h21.5v4.8c4.6-3.8,11-6.2,17.8-6.2c19.4,0,33.3,15.2,33.3,35.5s-13.9,35.5-33.3,35.5
			c-7,0-13.5-2.2-18.1-6v33.4h-21.2V194.1z M879.2,228.2c0-9.5-6.3-16.1-15.3-16.1c-9.1,0-15.3,6.6-15.3,16.1
			c0,9.4,6.2,16.1,15.3,16.1C872.9,244.4,879.2,237.7,879.2,228.2z"/>
		<path class="st2" d="M911.9,194.1h21.5v4.8c4.6-3.8,11-6.2,17.8-6.2c19.4,0,33.3,15.2,33.3,35.5s-13.9,35.5-33.3,35.5
			c-7,0-13.5-2.2-18.1-6v33.4h-21.2V194.1z M962.8,228.2c0-9.5-6.3-16.1-15.3-16.1c-9.1,0-15.3,6.6-15.3,16.1
			c0,9.4,6.2,16.1,15.3,16.1C956.4,244.4,962.8,237.7,962.8,228.2z"/>
	</g>
</g>
<g>
	<g>
		<path class="st2" d="M414.9,273.1h16.3c7.9,0,13.9,5.2,13.9,13.1c0,8-5.9,13.1-13.9,13.1h-11.6V317h-4.7V273.1z M419.5,277.2v18.1
			h11.3c5.4,0,9.4-3.4,9.4-9c0-5.6-4-9.1-9.4-9.1H419.5z"/>
		<path class="st2" d="M453.1,273.1h3.3l17.7,29.2l17.8-29.2h3.3V317h-4.7v-33.7l-14.7,24.2h-3.3l-14.7-24.2V317h-4.7V273.1z"/>
		<path class="st2" d="M502.4,310.2l3.3-3.2c3,4.2,6.8,6.2,12.3,6.2c5.6,0,9.4-2.7,9.4-7.2c0-12.3-22-6.4-22-22.1
			c0-7.1,5.6-11.4,13.3-11.4c5.7,0,10.2,2.4,13.2,6.1l-3.2,3.2c-2.7-3.3-5.9-5-10.1-5c-5.1,0-8.4,2.6-8.4,6.8c0,11.4,22,5.9,22,22.1
			c0,7.6-5.6,12-14.4,12C510.9,317.6,506.1,315,502.4,310.2z"/>
		<path class="st2" d="M551.5,310.2l3.3-3.2c3,4.2,6.8,6.2,12.3,6.2c5.6,0,9.4-2.7,9.4-7.2c0-12.3-22-6.4-22-22.1
			c0-7.1,5.6-11.4,13.3-11.4c5.7,0,10.2,2.4,13.2,6.1l-3.2,3.2c-2.7-3.3-5.9-5-10.1-5c-5.1,0-8.4,2.6-8.4,6.8c0,11.4,22,5.9,22,22.1
			c0,7.6-5.6,12-14.4,12C560,317.6,555.2,315,551.5,310.2z"/>
		<path class="st2" d="M586.4,301.9c0-8.7,6.8-15.5,15.6-15.5s15.6,6.8,15.6,15.5c0,8.9-6.8,15.8-15.6,15.8S586.4,310.7,586.4,301.9
			z M612.9,301.9c0-6.4-4.7-11.2-11-11.2s-10.9,4.8-10.9,11.2c0,6.6,4.6,11.4,10.9,11.4S612.9,308.5,612.9,301.9z"/>
		<path class="st2" d="M627.9,291h-7.5v-4h7.5v-5.1c0-6.3,4.5-10.7,10.8-10.7c3.2,0,5.6,1.2,7.7,3.3l-2.9,2.9c-1.3-1.3-2.8-2-4.7-2
			c-4,0-6.3,2.5-6.3,6.6v5h10v4h-10v26h-4.5V291z"/>
		<path class="st2" d="M651.6,291H644v-4h7.6v-12.6h4.5V287h7.5v4h-7.5v26h-4.5V291z"/>
		<path class="st2" d="M666.6,287h4.7l8.3,22.7l8.2-22.7h2.6l8.2,22.7l8.3-22.7h4.7L700,317h-2.6l-8.3-22l-8.2,22h-2.7L666.6,287z"
			/>
		<path class="st2" d="M714.5,302.1c0-8.9,6.4-15.7,14.9-15.7c4.7,0,8.6,2.1,10.9,5.6v-5h4.5v30h-4.5v-5c-2.2,3.5-6.1,5.6-10.8,5.6
			C720.9,317.6,714.5,310.9,714.5,302.1z M740.5,302c0-6.8-4.2-11.4-10.4-11.4c-6.4,0-11,4.8-11,11.4c0,6.6,4.6,11.4,11,11.4
			C736.3,313.4,740.5,308.8,740.5,302z"/>
		<path class="st2" d="M753.7,287h4.5v4c1.8-2.9,4.7-4.6,8.6-4.6c2.9,0,5.4,1,7.5,3.3l-2.9,3.1c-1.5-1.5-3.1-2.2-5.4-2.2
			c-4.6,0-7.8,3.1-7.8,8.9V317h-4.5V287z"/>
		<path class="st2" d="M776,301.9c0-8.8,6.7-15.6,15.4-15.6c8.2,0,14,6.1,14,14.6c0,0.6-0.1,1.5-0.3,2.7h-24.6
			c0.7,5.9,5,9.8,11.3,9.8c3.6,0,6.8-1.3,8.9-4l2.9,2.9c-2.8,3.3-7.1,5.2-11.9,5.2C782.7,317.6,776,310.9,776,301.9z M780.6,299.8
			h20.5c-0.4-5.7-4-9.3-9.8-9.3C785.4,290.5,781.3,294.2,780.6,299.8z"/>
	</g>
</g>
</svg>
